<svg width="566" height="91" viewBox="0 0 566 91" fill="none" xmlns="http://www.w3.org/2000/svg">
<path d="M383.634 13.972C383.634 13.972 361.312 35.3431 355.05 41.0089C348.815 46.6746 341.663 47.948 327.384 50.4394C313.106 52.9678 307.735 64.2808 296.129 75.9076C284.523 87.5528 274.698 89.2322 274.698 89.2322H0.341797C0.341797 89.2322 34.2695 88.8262 43.2034 82.533C52.1372 76.2398 64.6342 74.3389 69.1142 75.926C73.5943 77.5132 90.545 69.3191 100.37 72.4749C110.194 75.6123 140.559 74.1728 148.602 71.7552C156.645 69.3375 172.705 64.2993 198.616 63.0443C224.527 61.7894 229.871 49.8304 231.653 46.0656C233.434 42.3007 243.259 24.676 261.127 24.0485C278.995 23.4211 285.23 12.0896 288.819 8.32474C292.409 4.55988 318.293 -1.73333 337.942 3.91395C357.592 9.57969 361.155 7.05132 365.163 5.79637C369.172 4.54142 372.944 6.44231 383.66 13.9905L383.634 13.972Z" fill="#FFFFF2"/>
<path d="M383.634 13.972C383.634 13.972 361.312 35.3431 355.05 41.0089C348.815 46.6746 341.663 47.948 327.384 50.4394C313.106 52.9678 307.735 64.2808 296.129 75.9076C284.523 87.5528 274.698 89.2322 274.698 89.2322H0.341797C0.341797 89.2322 34.2695 88.8262 43.2034 82.533C52.1372 76.2398 64.6342 74.3389 69.1142 75.926C73.5943 77.5132 90.545 69.3191 100.37 72.4749C110.194 75.6123 140.559 74.1728 148.602 71.7552C156.645 69.3375 172.705 64.2993 198.616 63.0443C224.527 61.7894 229.871 49.8304 231.653 46.0656C233.434 42.3007 243.259 24.676 261.127 24.0485C278.995 23.4211 285.23 12.0896 288.819 8.32474C292.409 4.55988 318.293 -1.73333 337.942 3.91395C357.592 9.57969 361.155 7.05132 365.163 5.79637C369.172 4.54142 372.944 6.44231 383.66 13.9905L383.634 13.972Z" fill="url(#paint0_linear_536_19205)" fill-opacity="0.3"/>
<path d="M383.634 13.972C383.634 13.972 361.312 35.3431 355.05 41.0089C348.815 46.6746 341.663 47.948 327.384 50.4394C313.106 52.9678 307.735 64.2808 296.129 75.9076C284.523 87.5528 274.698 89.2322 274.698 89.2322H0.341797C0.341797 89.2322 34.2695 88.8262 43.2034 82.533C52.1372 76.2398 64.6342 74.3389 69.1142 75.926C73.5943 77.5132 90.545 69.3191 100.37 72.4749C110.194 75.6123 140.559 74.1728 148.602 71.7552C156.645 69.3375 172.705 64.2993 198.616 63.0443C224.527 61.7894 229.871 49.8304 231.653 46.0656C233.434 42.3007 243.259 24.676 261.127 24.0485C278.995 23.4211 285.23 12.0896 288.819 8.32474C292.409 4.55988 318.293 -1.73333 337.942 3.91395C357.592 9.57969 361.155 7.05132 365.163 5.79637C369.172 4.54142 372.944 6.44231 383.66 13.9905L383.634 13.972Z" stroke="#8DC996" stroke-opacity="0.3" stroke-width="3" stroke-miterlimit="10"/>
<path d="M564.904 89.233C564.904 89.233 556.861 85.6896 542.583 81.9063C528.304 78.123 524.715 64.9091 504.332 63.4511C483.95 61.9932 482.744 50.4218 470.221 51.5475C457.75 52.6549 456.833 44.7745 452.353 42.2646C447.873 39.7547 427.36 37.78 427.36 37.78C427.36 37.78 402.34 30.3056 394.296 21.5025C386.253 12.6994 383.581 13.9543 383.581 13.9543C383.581 13.9543 361.259 35.3254 354.998 40.9912C348.763 46.6569 341.61 47.9303 327.332 50.4218C313.053 52.9501 307.682 64.2632 296.076 75.8899C284.47 87.5351 274.646 89.2145 274.646 89.2145" fill="#FFFFF2"/>
<path d="M564.904 89.233C564.904 89.233 556.861 85.6896 542.583 81.9063C528.304 78.123 524.715 64.9091 504.332 63.4511C483.95 61.9932 482.744 50.4218 470.221 51.5475C457.75 52.6549 456.833 44.7745 452.353 42.2646C447.873 39.7547 427.36 37.78 427.36 37.78C427.36 37.78 402.34 30.3056 394.296 21.5025C386.253 12.6994 383.581 13.9543 383.581 13.9543C383.581 13.9543 361.259 35.3254 354.998 40.9912C348.763 46.6569 341.61 47.9303 327.332 50.4218C313.053 52.9501 307.682 64.2632 296.076 75.8899C284.47 87.5351 274.646 89.2145 274.646 89.2145" stroke="#8DC996" stroke-opacity="0.3" stroke-width="3" stroke-miterlimit="10"/>
<path d="M274.672 89.2321C274.672 89.2321 288.689 88.1248 296.443 80.3552C304.172 72.604 320.389 65.0559 329.899 63.3764C339.41 61.7155 352.3 60.8665 356.465 57.0832C360.631 53.2999 387.904 39.0525 387.904 39.0525C387.904 39.0525 393.668 38.2036 399.039 44.0723C404.41 49.9411 431.604 54.924 431.604 54.924C431.604 54.924 451.987 56.2343 454.948 57.9137C457.908 59.5931 464.72 64.8344 473.051 64.1146C481.382 63.358 492.307 71.0722 505.878 72.0504C519.449 73.0285 534.121 81.8316 543.631 84.3415C553.141 86.8514 564.879 89.2137 564.879 89.2137" stroke="#8DC996" stroke-opacity="0.3" stroke-miterlimit="10"/>
<path d="M274.672 89.2328C274.672 89.2328 292.906 88.6792 296.784 84.7851C300.635 80.9095 327.699 77.1262 332.467 76.2957C337.235 75.4652 355.837 75.0408 357.906 73.1584C360.002 71.2759 392.175 64.1522 392.175 64.1522C392.175 64.1522 401.056 63.7278 403.755 66.6621C406.453 69.5965 435.848 72.0879 435.848 72.0879C435.848 72.0879 456.074 72.7523 457.567 73.5828C459.061 74.4133 471.741 77.0524 475.907 76.6833C480.072 76.3142 500.691 80.1713 507.477 80.6511C514.262 81.131 539.989 85.5418 544.758 86.7967C549.526 88.0517 564.931 89.2328 564.931 89.2328" stroke="#8DC996" stroke-opacity="0.3" stroke-miterlimit="10"/>
<defs>
<linearGradient id="paint0_linear_536_19205" x1="0.315598" y1="45.4381" x2="383.634" y2="45.4381" gradientUnits="userSpaceOnUse">
<stop stop-color="#8DC996"/>
<stop offset="0.13" stop-color="#ACD8AF" stop-opacity="0.5"/>
<stop offset="0.7" stop-color="#90CA98" stop-opacity="0.98"/>
<stop offset="0.87" stop-color="#CEE8CB" stop-opacity="0.8"/>
<stop offset="0.93" stop-color="#C4E3C2" stop-opacity="0.83"/>
<stop offset="0.98" stop-color="#A8D4A7" stop-opacity="0.94"/>
<stop offset="1" stop-color="#99CC99"/>
</linearGradient>
</defs>
</svg>
