<svg width="748" height="152" viewBox="0 0 748 152" fill="none" xmlns="http://www.w3.org/2000/svg">
<path d="M62.9875 150.232C62.9875 150.232 76.611 150.177 87.536 139.934C98.461 129.71 105.273 126.185 120.285 123.306C135.271 120.427 139.358 106.973 154.396 99.2775C169.382 91.5817 163.932 82.9447 176.194 81.9666C188.455 81.0069 213.029 69.4724 222.566 64.6741C232.128 59.8757 247.14 57.938 260.764 51.2387C274.387 44.5026 274.387 32.0269 278.501 25.2907C282.588 18.5731 293.513 2.24023 293.513 2.24023C273.051 2.24023 259.061 21.4521 259.061 21.4521C259.061 21.4521 252.249 35.8656 248.162 41.6236C244.075 47.3816 229.063 41.6236 229.063 41.6236C229.063 41.6236 218.164 49.3009 190.865 50.2791C163.566 51.2572 160.867 57.9564 160.867 63.7329C160.867 69.5093 151.331 71.4102 129.507 76.024C107.683 80.6378 107.683 88.7212 106.321 94.4792C104.958 100.237 89.9463 105.054 79.0475 108.893C68.1487 112.731 66.7602 114.651 63.0399 116.57C59.3197 118.489 47.661 123.288 44.9363 129.655C42.2116 136.022 43.574 135.8 28.5619 139.934C13.5499 144.068 5.37585 150.158 5.37585 150.158L63.0137 150.214" fill="#FFFFF2"/>
<path d="M62.9875 150.232C62.9875 150.232 76.611 150.177 87.536 139.934C98.461 129.71 105.273 126.185 120.285 123.306C135.271 120.427 139.358 106.973 154.396 99.2775C169.382 91.5817 163.932 82.9447 176.194 81.9666C188.455 81.0069 213.029 69.4724 222.566 64.6741C232.128 59.8757 247.14 57.938 260.764 51.2387C274.387 44.5026 274.387 32.0269 278.501 25.2907C282.588 18.5731 293.513 2.24023 293.513 2.24023C273.051 2.24023 259.061 21.4521 259.061 21.4521C259.061 21.4521 252.249 35.8656 248.162 41.6236C244.075 47.3816 229.063 41.6236 229.063 41.6236C229.063 41.6236 218.164 49.3009 190.865 50.2791C163.566 51.2572 160.867 57.9564 160.867 63.7329C160.867 69.5093 151.331 71.4102 129.507 76.024C107.683 80.6378 107.683 88.7212 106.321 94.4792C104.958 100.237 89.9463 105.054 79.0475 108.893C68.1487 112.731 66.7602 114.651 63.0399 116.57C59.3197 118.489 47.661 123.288 44.9363 129.655C42.2116 136.022 43.574 135.8 28.5619 139.934C13.5499 144.068 5.37585 150.158 5.37585 150.158L63.0137 150.214" fill="url(#paint0_linear_536_19200)" fill-opacity="0.3"/>
<path d="M62.9875 150.232C62.9875 150.232 76.611 150.177 87.536 139.934C98.461 129.71 105.273 126.185 120.285 123.306C135.271 120.427 139.358 106.973 154.396 99.2775C169.382 91.5817 163.932 82.9447 176.194 81.9666C188.455 81.0069 213.029 69.4724 222.566 64.6741C232.128 59.8757 247.14 57.938 260.764 51.2387C274.387 44.5026 274.387 32.0269 278.501 25.2907C282.588 18.5731 293.513 2.24023 293.513 2.24023C273.051 2.24023 259.061 21.4521 259.061 21.4521C259.061 21.4521 252.249 35.8656 248.162 41.6236C244.075 47.3816 229.063 41.6236 229.063 41.6236C229.063 41.6236 218.164 49.3009 190.865 50.2791C163.566 51.2572 160.867 57.9564 160.867 63.7329C160.867 69.5093 151.331 71.4102 129.507 76.024C107.683 80.6378 107.683 88.7212 106.321 94.4792C104.958 100.237 89.9463 105.054 79.0475 108.893C68.1487 112.731 66.7602 114.651 63.0399 116.57C59.3197 118.489 47.661 123.288 44.9363 129.655C42.2116 136.022 43.574 135.8 28.5619 139.934C13.5499 144.068 5.37586 150.158 5.37586 150.158L63.0137 150.214" stroke="#8DC996" stroke-opacity="0.3" stroke-width="3" stroke-miterlimit="10"/>
<path d="M62.9874 150.231C62.9874 150.231 76.6108 150.176 87.5359 139.933C98.4609 129.709 105.273 126.184 120.285 123.305C135.271 120.426 139.358 106.973 154.396 99.2767C169.382 91.5809 163.932 82.9439 176.193 81.9658C188.455 81.0061 213.029 69.4716 222.566 64.6733C232.128 59.8749 247.14 57.9371 260.764 51.2379C274.387 44.5018 274.387 32.0261 278.501 25.2899C282.588 18.5722 293.513 2.23941 293.513 2.23941C293.513 2.23941 300.324 1.26129 313.948 2.23941C327.598 3.19908 339.885 18.5722 342.583 26.268C345.334 33.9639 391.707 46.4395 402.605 49.3186C413.53 52.1976 417.591 62.7724 417.591 62.7724C417.591 62.7724 439.415 70.4682 446.227 73.3287C453.038 76.2077 466.688 84.8632 478.976 83.9035C491.263 82.9439 532.16 94.4599 537.609 101.436C543.058 108.412 547.172 104.094 555.346 102.156C563.546 100.236 600.356 102.156 619.455 107.932C638.554 113.69 649.479 104.094 652.203 107.932C654.954 111.771 669.94 116.569 674.027 119.467C678.114 122.327 682.201 122.327 710.837 129.654C739.472 136.962 746.284 150.231 746.284 150.231" fill="#FFFFF2"/>
<path d="M62.9874 150.231C62.9874 150.231 76.6109 150.176 87.5359 139.933C98.4609 129.709 105.273 126.184 120.285 123.305C135.27 120.426 139.358 106.973 154.396 99.2767C169.382 91.5809 163.932 82.9439 176.193 81.9658C188.455 81.0061 213.029 69.4716 222.566 64.6733C232.128 59.8749 247.14 57.9371 260.764 51.2379C274.387 44.5018 274.387 32.0261 278.501 25.2899C282.588 18.5722 293.513 2.23941 293.513 2.23941C293.513 2.23941 300.324 1.26129 313.948 2.23941C327.598 3.19908 339.885 18.5722 342.583 26.268C345.334 33.9639 391.707 46.4395 402.605 49.3186C413.53 52.1976 417.591 62.7724 417.591 62.7724C417.591 62.7724 439.415 70.4682 446.227 73.3287C453.038 76.2077 466.688 84.8632 478.976 83.9035C491.263 82.9439 532.16 94.4599 537.609 101.436C543.058 108.412 547.172 104.094 555.346 102.156C563.546 100.236 600.356 102.156 619.455 107.932C638.554 113.69 649.479 104.094 652.203 107.932C654.954 111.771 669.94 116.569 674.027 119.467C678.114 122.327 682.201 122.327 710.837 129.654C739.472 136.962 746.284 150.231 746.284 150.231" stroke="#8DC996" stroke-opacity="0.3" stroke-width="3" stroke-miterlimit="10"/>
<path d="M746.284 150.231C746.284 150.231 729.255 141.372 710.182 136.519C691.083 131.646 677.852 131.646 675.101 129.727C672.377 127.808 655.112 124.597 653.278 122.031C651.47 119.466 635.148 125.87 622.389 122.031C609.656 118.174 567.79 116.901 562.341 118.174C556.891 119.466 548.613 122.345 544.971 117.694C541.329 113.044 496.791 105.366 488.617 106.012C480.443 106.658 461.606 100.882 457.073 98.9623C452.541 97.043 429.407 91.9309 429.407 91.9309C429.407 91.9309 420.054 84.881 412.771 82.9617C405.487 81.0423 356.128 72.719 354.321 67.607C352.513 62.4764 331.973 52.2338 322.856 51.5879C313.764 50.9419 303.809 51.5879 303.809 51.5879C303.809 51.5879 286.963 62.4764 284.238 66.9426C281.513 71.4272 270.379 79.7504 261.288 84.2351C252.197 88.7197 230.792 89.9931 224.4 93.2043C218.033 96.397 187.642 104.093 179.468 104.739C171.294 105.385 165.845 111.143 155.837 116.273C145.829 121.404 130.005 130.355 120.023 132.292C110.015 134.212 94.4786 136.555 87.2215 143.384C79.9382 150.212 63.0136 150.249 63.0136 150.249" stroke="#8DC996" stroke-opacity="0.3" stroke-miterlimit="10"/>
<path d="M746.284 150.232C746.284 150.232 719.063 145.803 709.501 143.367C699.964 140.931 677.538 140.931 676.176 139.971C674.813 139.011 655.269 137.406 654.352 136.132C653.435 134.859 631.69 138.052 625.323 136.132C618.957 134.213 572.034 133.567 569.31 134.213C566.585 134.859 554.114 136.299 552.28 133.973C550.446 131.648 502.293 127.809 498.206 128.123C494.119 128.437 470.12 125.558 467.841 124.598C465.562 123.638 441.144 121.073 441.144 121.073C441.144 121.073 426.499 117.548 422.857 116.588C419.216 115.629 366.87 111.476 365.953 108.911C365.036 106.346 336.243 101.215 331.685 100.902C327.152 100.569 314.053 100.902 314.053 100.902C314.053 100.902 291.259 106.346 289.897 108.579C288.535 110.83 266.266 114.983 261.707 117.234C257.175 119.467 229.325 120.113 226.155 121.719C222.985 123.325 186.752 127.163 182.665 127.477C178.577 127.809 162.229 130.688 157.225 133.253C152.221 135.819 124.686 140.303 119.708 141.263C114.704 142.223 90.4701 143.404 86.8284 146.8C83.1868 150.214 62.9349 150.232 62.9349 150.232" stroke="#8DC996" stroke-opacity="0.3" stroke-miterlimit="10"/>
<defs>
<linearGradient id="paint0_linear_536_19200" x1="293.486" y1="76.2455" x2="5.34966" y2="76.2455" gradientUnits="userSpaceOnUse">
<stop stop-color="#8DC996"/>
<stop offset="0.13" stop-color="#ACD8AF" stop-opacity="0.5"/>
<stop offset="0.7" stop-color="#90CA98" stop-opacity="0.98"/>
<stop offset="0.87" stop-color="#CEE8CB" stop-opacity="0.8"/>
<stop offset="0.93" stop-color="#C4E3C2" stop-opacity="0.83"/>
<stop offset="0.98" stop-color="#A8D4A7" stop-opacity="0.94"/>
<stop offset="1" stop-color="#99CC99"/>
</linearGradient>
</defs>
</svg>
