<svg width="195" height="29" viewBox="0 0 195 29" fill="none" xmlns="http://www.w3.org/2000/svg">
<path d="M15.8824 0L21.1011 8.89775L31.2353 11.077L24.3265 18.7554L25.371 29L15.8824 24.8477L6.39372 29L7.43824 18.7554L0.529419 11.077L10.6636 8.89775L15.8824 0Z" fill="#FFCB45"/>
<path d="M56.8235 0L62.0423 8.89775L72.1765 11.077L65.2676 18.7554L66.3122 29L56.8235 24.8477L47.3349 29L48.3794 18.7554L41.4706 11.077L51.6048 8.89775L56.8235 0Z" fill="#FFCB45"/>
<path d="M97.7647 0L102.983 8.89775L113.118 11.077L106.209 18.7554L107.253 29L97.7647 24.8477L88.276 29L89.3206 18.7554L82.4117 11.077L92.5459 8.89775L97.7647 0Z" fill="#FFCB45"/>
<path d="M138.706 0L143.925 8.89775L154.059 11.077L147.15 18.7554L148.194 29L138.706 24.8477L129.217 29L130.262 18.7554L123.353 11.077L133.487 8.89775L138.706 0Z" fill="#FFCB45"/>
<path d="M179.647 0L184.866 8.89775L195 11.077L188.091 18.7554L189.136 29L179.647 24.8477L170.158 29L171.203 18.7554L164.294 11.077L174.428 8.89775L179.647 0Z" fill="#FFCB45"/>
</svg>
