<svg width="38" height="38" viewBox="0 0 38 38" fill="none" xmlns="http://www.w3.org/2000/svg">
<path d="M33.25 15.834C33.25 26.9173 19 36.4173 19 36.4173C19 36.4173 4.75 26.9173 4.75 15.834C4.75 12.0546 6.25133 8.43011 8.92373 5.75771C11.5961 3.08532 15.2207 1.58398 19 1.58398C22.7793 1.58398 26.4039 3.08532 29.0763 5.75771C31.7487 8.43011 33.25 12.0546 33.25 15.834Z" fill="#F3C969"/>
<path d="M19 20.584C21.6234 20.584 23.75 18.4573 23.75 15.834C23.75 13.2106 21.6234 11.084 19 11.084C16.3766 11.084 14.25 13.2106 14.25 15.834C14.25 18.4573 16.3766 20.584 19 20.584Z" fill="white"/>
</svg>
