<?xml version="1.0" encoding="UTF-8"?>
<svg id="tree3" xmlns="http://www.w3.org/2000/svg" viewBox="0 0 200 200">
  <polygon id="brown" points="101.02 200 101.02 126.45 119.78 102.3 117.6 99.97 101.02 120.22 101.02 73.22 93.86 73.22 93.86 152.16 82.67 138.4 80.22 140.74 93.86 157.62 93.86 200 101.02 200" style="fill: #7f5440;"/>
  <g id="green_bottom">
    <circle cx="95.76" cy="53.22" r="50" style="fill: #2b4d30;"/>
    <ellipse cx="62.61" cy="118.77" rx="37.39" ry="31.93" style="fill: #2b4d30;"/>
    <ellipse cx="127.05" cy="91.77" rx="22.97" ry="19.61" style="fill: #2b4d30;"/>
  </g>
  <g id="green_top">
    <path d="m95.76,103.22c-27.61,0-50-22.39-50-50S68.15,3.22,95.76,3.22v100" style="fill: #67a061;"/>
    <path d="m62.61,86.85c-20.65,0-37.39,14.29-37.39,31.93s16.74,31.93,37.39,31.93v-63.85Z" style="fill: #67a061;"/>
    <path d="m127.05,111.38c-12.69,0-22.97-8.78-22.97-19.61s10.28-19.61,22.97-19.61v39.22Z" style="fill: #67a061;"/>
  </g>
</svg>