<?xml version="1.0" encoding="UTF-8"?>
<svg id="tree2" xmlns="http://www.w3.org/2000/svg" viewBox="0 0 200 200">
  <g id="brown">
    <path d="m102.01,200.64v-95.97s-7.32-3.4-12.29,0v40.55l-26.81-26.81-3.01,4.58,29.11,29.11v48.55h13.01Z" style="fill: #7f5440;"/>
    <path d="m95.89,200.64v-97.46s-2.56-1.27-6.18,1.49v43.96l-28.24-28.05-1.58,2.4,29.11,29.11v48.55h6.9Z" style="fill: #9a815f;"/>
  </g>
  <g id="green_base">
    <circle cx="143.87" cy="67.49" r="35.66" style="fill: #489f58;"/>
    <circle cx="98.53" cy="33.67" r="32.38" style="fill: #489f58;"/>
    <circle cx="55.72" cy="73" r="32.38" style="fill: #489f58;"/>
    <circle cx="132.91" cy="110.36" r="27.38" style="fill: #489f58;"/>
    <circle cx="45" cy="103.15" r="24.53" style="fill: #489f58;"/>
    <path d="m57.25,127.69h73.67s24.39-8.12,20.41-32.51c-3.98-24.39-21.9-36.09-21.9-36.09,0,0-39.07-17.42-66.2,3.73-27.13,21.15-32.85,33.85-32.85,33.85,0,0-13.19,31.01,26.88,31.01Z" style="fill: #489f58;"/>
  </g>
  <g id="green_top">
    <circle cx="107.4" cy="102.88" r="25.01" style="fill: #7cb074;"/>
    <circle cx="42.3" cy="105.07" r="21.83" style="fill: #7cb074;"/>
    <circle cx="73.17" cy="78.4" r="28.84" style="fill: #7cb074;"/>
    <path d="m59.89,127.9h47.51s7.09-37.2-18.29-48.15-48.53,13.69-48.28,16.18c0,0-30.59,31.97,19.07,31.97Z" style="fill: #7cb074;"/>
  </g>
</svg>