<?xml version="1.0" encoding="UTF-8"?>
<svg id="tree4" xmlns="http://www.w3.org/2000/svg" viewBox="0 0 200 200">
  <g id="brown">
    <rect id="main" x="94.73" y="29.61" width="12.54" height="170.39" style="fill: #7f5440;"/>
    <polygon id="_1" data-name="1" points="61.82 119.27 104.41 173.19 104.41 162.73 68.39 116.49 61.82 119.27" style="fill: #7f5440;"/>
    <polygon id="_2" data-name="2" points="134.45 77.71 97.46 130.76 97.46 119.32 129.34 72.6 134.45 77.71" style="fill: #7f5440;"/>
    <polygon id="_3" data-name="3" points="65.58 58.22 96 98.86 96 107.62 56.82 58.22 65.58 58.22" style="fill: #7f5440;"/>
    <polygon id="_4" data-name="4" points="105.25 51.16 115.96 34.61 113.52 34.61 105.25 47.76 105.25 51.16" style="fill: #7f5440;"/>
  </g>
  <g id="green-bot">
    <path d="m25.39,140.34s21.74,9.41,42.42,1.02c9.49-2.83,17.12,3.48,17.12,3.48,0,0,21.37-1.5,25.44-8.34s-13.23-11.93-20.61-12.19c2.54-9.92-12.72-19.59-26.71-16.03-13.99,3.56-13.74,10.43-13.74,10.43,0,0-7.63-3.82-15.01,6.36-7.89.76-20.61,7.38-8.9,15.27Z" style="fill: #2b4d30;"/>
    <path d="m138.1,93.27s21.37,5.34,30.02-3.05c8.65-8.4-3.31-12.72-3.31-12.72l-3.56-1.02s-5.34-6.87-13.48-7.63c-7.38-7.63-28.24-15.01-33.84,6.61-8.24,2.29-30.79,14.76,0,18.06,16.43-4.66,14.25-6.11,24.17-.25Z" style="fill: #2b4d30;"/>
    <path d="m35.06,65.29s14.25,2.8,21.63,0c7.38-2.8,23.66,0,23.66,0,0,0,12.47-1.34,12.72-4.1s-.76-7.85-14.5-8.36c-3.31-9.92-15.01-11.7-25.7-7.38l-3.05,2.8s-9.41,2.54-12.72,5.6c-4.33.25-14.25,6.11-2.04,11.45Z" style="fill: #2b4d30;"/>
    <path d="m115.71,36.28s27.22,2.54,28.24-8.4c0-7.38-9.21-9.41-9.21-9.41,0,0-2.24-4.33-14.71-6.87-3.31-7.12-12.72-11.7-24.93-8.14-12.21,3.56-9.67,13.48-9.67,13.48,0,0-18.21,1.02-17.63,8.9.58,7.89,17.43,11.96,25.29,10.69s10.65-6.11,22.61-.26Z" style="fill: #2b4d30;"/>
  </g>
  <g id="green-top">
    <path d="m26.27,140.3c1.64-.24,9.95-1.7,26.51-8.22,3.23-1.27,6.66-2.02,10.12-2.12,9.53-.29,21.47,1.99,22.68,2.22.07.01.12.03.19.07,1.49.77,21.25,10.84,25.17,4.25,3.92-6.58-11.94-11.54-19.72-12.14-.44-.03-.78-.44-.71-.88,1.53-9.62-13.28-18.67-26.89-15.2-10.95,2.79-13.18,7.6-13.63,9.56-.1.43-.55.68-.97.55-2.17-.64-8.12-1.43-13.95,6.41-.12.17-.31.28-.52.3-7.84.9-19.95,7.35-8.84,15.05.16.11.37.16.57.14Z" style="fill: #7cb074;"/>
    <path d="m99.06,85.55c1.28-4.28,10.28-8.55,15.04-9.97.26-.08.44-.28.51-.54,5.71-20.94,26.07-13.89,33.55-6.38.12.12.27.19.44.21,7.23.8,12.2,6.37,13.08,7.43.1.12.23.2.37.24l3.3.94s.03,0,.05.02c.43.16,6.69,2.59,6.42,7.18-.09,1.55-.93,3.34-2.98,5.38-.1.1-.22.17-.36.21-1.67.44-13.25,3.22-18.44-3.62-3.87-5.1-15.17-5.7-21.77-5.58-2.92.05-5.8.66-8.49,1.79-7.18,3.02-22.59,8.88-20.73,2.68Z" style="fill: #7cb074;"/>
    <path d="m93.64,61.18c1.72-2.14-.7-7.71-13.98-8.34-.31-.01-.58-.22-.69-.51-3.51-9.45-14.92-11.13-25.39-6.95-.09.04-.18.09-.25.16l-2.81,2.57c-.09.08-.19.14-.31.17-1.27.35-9.21,2.65-12.38,5.4-.12.1-.24.16-.4.17-2.74.27-7.37,2.57-7.67,5.53-.18,1.81-1.31,3.86,3.14,5.85.07.03.15.06.23.07.93.11,7.34.68,13.39-4.25.64-.52,1.17-1.17,1.59-1.88,3.11-5.3,18.95-.95,19.65-.76.02,0,.03,0,.05.02.79.29,21.65,7.97,25.83,2.76Z" style="fill: #7cb074;"/>
    <path d="m68.38,25.85c-2.73-4.57,6.2-7.02,12.34-8.14,2.69-.49,4.75-2.6,5.32-5.28.66-3.1,2.9-7.01,9.64-8.98,11.02-3.21,19.77.2,23.8,6.14.87,1.28,2.18,2.2,3.68,2.58,6.98,1.75,10.1,4.04,11.37,5.32.63.63,1.39,1.11,2.23,1.41.52.18,1.14.43,1.8.76,7.47,3.65,2.16,15.05-5.48,11.78-1.25-.53-2.62-1.28-4.14-2.28-12.72-8.4-17.96-3.56-17.96-3.56,0,0-8.75,6.11-16.13,4.07s-9.67-4.83-15.01-3.05-9.17,3.05-11.45-.76Z" style="fill: #7cb074;"/>
  </g>
</svg>