<?xml version="1.0" encoding="UTF-8"?>
<svg id="sprout" xmlns="http://www.w3.org/2000/svg" viewBox="0 0 200 200">
  <path id="dirt" d="m63.15,200c0-10.65,16.5-19.28,36.85-19.28s36.85,8.63,36.85,19.28H63.15Z" style="fill: #7f5440;"/>
  <path id="stem" d="m100,185.56s6.88-26.03,3.22-47.3c-1.1-5.13-2.98-9.9,1.08-15.03,4.06-5.13,4.06-4.77,10.66-4.4-5.13-2.2-12.66-4.77-14.95,9.53-7.42-9.53-11.82-11.14-15.12-11.25s5.98-.18,10.74,10.45c3.07,7.27,4.37,14.04,4.37,16.2,0,16.89-1.92,27.36-6.68,41.8,6.68,4.8,6.68,0,6.68,0Z" style="fill: #2b4d30;"/>
  <path id="leaf2" d="m115.89,110.04c1.24-.73,15.12-8.73,23.7,1.09,8.58,9.82,9.98,15.28,10.14,15.9s2.49,3.27-2.96,2.49-6.55.14-6.55.14c0,0-14.97,1.42-21.36-2.95-6.39-4.37-11.34-9.2-13.37-8.64s7.36-6.23,10.41-8.04Z" style="fill: #67a061;"/>
  <path id="leaf1" d="m82.61,110.91c-1.24-.73-15.12-8.73-23.7,1.09-8.58,9.82-9.98,15.28-10.14,15.9s-2.49,3.27,2.96,2.49c5.46-.78,6.55.14,6.55.14,0,0,14.97,1.42,21.36-2.95,6.39-4.37,11.09-7.56,13.12-7s-7.11-7.87-10.16-9.69Z" style="fill: #67a061;"/>
</svg>