<?xml version="1.0" encoding="UTF-8"?>
<svg id="tree1" xmlns="http://www.w3.org/2000/svg" viewBox="0 0 200 200">
  <g id="brown">
    <path d="m108.9,199.36v-66.95s5.95-16.73,10.78-23.79,25.27-27.13,25.27-27.13c-23.79,15.24-36.05,26.02-36.05,26.02,0,0,9.66-33.08,23.79-46.83-24.53,19.7-33.75,48.32-33.75,48.32,0,0-8.24-24.9-31.66-33.82,14.5,17.84,22.3,25.65,23.79,43.86s-1.12,23.42-1.12,23.42l-.37,7.43s-5.2,2.23-6.32-9.29-8.92-26.76-8.92-26.76l4.46,26.76s1.12,7.06,3.35,9.66,6.32,12.64,7.06,15.24v34.51l19.7-.64Z" style="fill: #7f5440;"/>
    <path d="m99.05,199.68l-9.86.32v-34.51c-.74-2.6-4.83-12.64-7.06-15.24s-3.35-9.66-3.35-9.66l-4.46-26.76s7.81,15.24,8.92,26.76,6.32,9.29,6.32,9.29l.37-7.43s2.6-5.2,1.12-23.42c-1.49-18.21-9.29-26.02-23.79-43.86,23.42,8.92,31.66,33.82,31.66,33.82l.12,90.69Z" style="fill: #9a815f;"/>
  </g>
  <g id="green">
    <ellipse cx="98.26" cy="75.63" rx="67.31" ry="67.83" style="fill: #2b4d30;"/>
    <path d="m98.26,143.46c-37.18,0-67.31-30.37-67.31-67.83S61.08,7.79,98.26,7.79v135.66Z" style="fill: #67a061;"/>
  </g>
</svg>