<svg width="100" height="21" viewBox="0 0 100 21" fill="none" xmlns="http://www.w3.org/2000/svg">
<path d="M9.99984 2.16675L12.5748 7.38341L18.3332 8.22508L14.1665 12.2834L15.1498 18.0167L9.99984 15.3084L4.84984 18.0167L5.83317 12.2834L1.6665 8.22508L7.42484 7.38341L9.99984 2.16675Z" fill="#F3C969"/>
<path d="M29.9998 2.16675L32.5748 7.38341L38.3332 8.22508L34.1665 12.2834L35.1498 18.0167L29.9998 15.3084L24.8498 18.0167L25.8332 12.2834L21.6665 8.22508L27.4248 7.38341L29.9998 2.16675Z" fill="#F3C969"/>
<path d="M49.9998 2.16675L52.5748 7.38341L58.3332 8.22508L54.1665 12.2834L55.1498 18.0167L49.9998 15.3084L44.8498 18.0167L45.8332 12.2834L41.6665 8.22508L47.4248 7.38341L49.9998 2.16675Z" fill="#F3C969"/>
<path d="M69.9998 2.16675L72.5748 7.38341L78.3332 8.22508L74.1665 12.2834L75.1498 18.0167L69.9998 15.3084L64.8498 18.0167L65.8332 12.2834L61.6665 8.22508L67.4248 7.38341L69.9998 2.16675Z" fill="#F3C969"/>
<path d="M89.9998 2.16675L92.5748 7.38341L98.3332 8.22508L94.1665 12.2834L95.1498 18.0167L89.9998 15.3084L84.8498 18.0167L85.8332 12.2834L81.6665 8.22508L87.4248 7.38341L89.9998 2.16675Z" fill="#F3C969"/>
</svg>
