<svg width="43" height="43" viewBox="0 0 43 43" fill="none" xmlns="http://www.w3.org/2000/svg">
<path d="M30.34 14.11C29.8292 13.599 29.2228 13.1936 28.5554 12.9171C27.8879 12.6405 27.1725 12.4982 26.45 12.4982C25.7275 12.4982 25.0121 12.6405 24.3446 12.9171C23.6772 13.1936 23.0708 13.599 22.56 14.11L21.5 15.17L20.44 14.11C19.4083 13.0783 18.009 12.4987 16.55 12.4987C15.091 12.4987 13.6917 13.0783 12.66 14.11C11.6283 15.1417 11.0487 16.541 11.0487 18C11.0487 19.459 11.6283 20.8583 12.66 21.89L13.72 22.95L21.5 30.73L29.28 22.95L30.34 21.89C30.851 21.3792 31.2563 20.7728 31.5329 20.1053C31.8095 19.4379 31.9518 18.7225 31.9518 18C31.9518 17.2775 31.8095 16.5621 31.5329 15.8946C31.2563 15.2272 30.851 14.6208 30.34 14.11Z" stroke="#6CBA7C" stroke-width="2" stroke-linecap="round" stroke-linejoin="round"/>
<path d="M1 5C1 2.79086 2.79086 1 5 1H38C40.2091 1 42 2.79086 42 5V38C42 40.2091 40.2091 42 38 42H5C2.79086 42 1 40.2091 1 38V5Z" stroke="#6CBA7C" stroke-width="2"/>
</svg>
