<svg width="27" height="26" viewBox="0 0 27 26" fill="none" xmlns="http://www.w3.org/2000/svg">
<path d="M0 11.4787C0 13.901 1.40713 16 3.46135 17.0284C3.0459 17.8572 2.8125 18.7901 2.8125 19.7766C2.8125 23.2137 5.64569 26 9.14062 26C10.8302 26 12.3651 25.3488 13.5 24.2878C14.6349 25.3488 16.1698 26 17.8594 26C21.3543 26 24.1875 23.2137 24.1875 19.7766C24.1875 18.7901 23.9541 17.8572 23.5386 17.0284C25.5929 16 27 13.901 27 11.4787C27 8.04164 24.1668 5.25532 20.6719 5.25532C20.4105 5.25532 20.1528 5.27088 19.8997 5.30117C19.4466 2.30143 16.8169 0 13.6406 0C10.4506 0 7.81183 2.32142 7.37574 5.3402C7.03498 5.28436 6.685 5.25532 6.32812 5.25532C2.83319 5.25532 0 8.04164 0 11.4787Z" fill="#6CBA7C"/>
<circle cx="13.5" cy="13.5" r="4.5" fill="#FFFFF2"/>
</svg>
