<svg width="27" height="26" viewBox="0 0 27 26" fill="none" xmlns="http://www.w3.org/2000/svg">
<path d="M4.80231 17.7006L5.47485 16.3589L4.13282 15.6871C2.55773 14.8986 1.5 13.3017 1.5 11.4787C1.5 8.89356 3.63793 6.75532 6.32812 6.75532C6.60351 6.75532 6.87236 6.77772 7.13315 6.82046L8.64176 7.06769L8.86033 5.55466C9.18865 3.28191 11.1879 1.5 13.6406 1.5C16.0826 1.5 18.0754 3.26655 18.4166 5.5252L18.6338 6.96338L20.078 6.79054C20.2719 6.76733 20.4701 6.75532 20.6719 6.75532C23.3621 6.75532 25.5 8.89356 25.5 11.4787C25.5 13.3017 24.4423 14.8985 22.8672 15.687L21.5251 16.3589L22.1977 17.7005C22.5112 18.3261 22.6875 19.0294 22.6875 19.7766C22.6875 22.3618 20.5496 24.5 17.8594 24.5C16.5618 24.5 15.3901 24.0014 14.5244 23.192L13.5 22.2343L12.4756 23.192C11.6099 24.0014 10.4382 24.5 9.14062 24.5C6.45042 24.5 4.3125 22.3618 4.3125 19.7766C4.3125 19.0294 4.48875 18.3261 4.80231 17.7006Z" stroke="#6CBA7C" stroke-width="3"/>
<circle cx="13.5" cy="13.5" r="3" stroke="#6CBA7C" stroke-width="3"/>
</svg>
