<svg width="24" height="25" viewBox="0 0 24 25" fill="none" xmlns="http://www.w3.org/2000/svg">
<path d="M20.8401 5.10999C20.3294 4.599 19.7229 4.19364 19.0555 3.91708C18.388 3.64052 17.6726 3.49817 16.9501 3.49817C16.2276 3.49817 15.5122 3.64052 14.8448 3.91708C14.1773 4.19364 13.5709 4.599 13.0601 5.10999L12.0001 6.16999L10.9401 5.10999C9.90843 4.0783 8.50915 3.4987 7.05012 3.4987C5.59109 3.4987 4.19181 4.0783 3.16012 5.10999C2.12843 6.14169 1.54883 7.54096 1.54883 8.99999C1.54883 10.459 2.12843 11.8583 3.16012 12.89L4.22012 13.95L12.0001 21.73L19.7801 13.95L20.8401 12.89C21.3511 12.3792 21.7565 11.7728 22.033 11.1053C22.3096 10.4379 22.4519 9.72248 22.4519 8.99999C22.4519 8.27751 22.3096 7.5621 22.033 6.89464C21.7565 6.22718 21.3511 5.62075 20.8401 5.10999Z" stroke="#9AA09B" stroke-width="2" stroke-linecap="round" stroke-linejoin="round"/>
</svg>
