<svg width="20" height="21" viewBox="0 0 20 21" fill="none" xmlns="http://www.w3.org/2000/svg">
<path d="M17.5 8.8335C17.5 14.6668 10 19.6668 10 19.6668C10 19.6668 2.5 14.6668 2.5 8.8335C2.5 6.84437 3.29018 4.93672 4.6967 3.53019C6.10322 2.12367 8.01088 1.3335 10 1.3335C11.9891 1.3335 13.8968 2.12367 15.3033 3.53019C16.7098 4.93672 17.5 6.84437 17.5 8.8335Z" fill="#6CBA7C"/>
<path d="M10 11.3335C11.3807 11.3335 12.5 10.2142 12.5 8.8335C12.5 7.45278 11.3807 6.3335 10 6.3335C8.61929 6.3335 7.5 7.45278 7.5 8.8335C7.5 10.2142 8.61929 11.3335 10 11.3335Z" fill="white"/>
</svg>
