<svg width="50" height="75" viewBox="0 0 50 75" fill="none" xmlns="http://www.w3.org/2000/svg">
<path d="M20.3882 29.6118C19.8775 29.1008 19.271 28.6955 18.6036 28.4189C17.9361 28.1423 17.2207 28 16.4982 28C15.7757 28 15.0603 28.1423 14.3929 28.4189C13.7254 28.6955 13.119 29.1008 12.6082 29.6118L11.5482 30.6718L10.4882 29.6118C9.45652 28.5801 8.05725 28.0005 6.59821 28.0005C5.13918 28.0005 3.73991 28.5801 2.70821 29.6118C1.67652 30.6435 1.09692 32.0428 1.09692 33.5018C1.09692 34.9609 1.67652 36.3601 2.70821 37.3918L3.76821 38.4518L11.5482 46.2318L19.3282 38.4518L20.3882 37.3918C20.8992 36.8811 21.3046 36.2746 21.5811 35.6072C21.8577 34.9397 22 34.2243 22 33.5018C22 32.7793 21.8577 32.0639 21.5811 31.3965C21.3046 30.729 20.8992 30.1226 20.3882 29.6118Z" stroke="#6CBA7C" stroke-width="2" stroke-linecap="round" stroke-linejoin="round"/>
</svg>
