<svg width="30" height="30" viewBox="0 0 30 30" fill="none" xmlns="http://www.w3.org/2000/svg">
<path d="M11.9091 26.3865C12.5242 26.3865 13.0227 25.8879 13.0227 25.2728C13.0227 24.6578 12.5242 24.1592 11.9091 24.1592C11.2941 24.1592 10.7955 24.6578 10.7955 25.2728C10.7955 25.8879 11.2941 26.3865 11.9091 26.3865Z" stroke="#6CBA7C" stroke-width="1.5" stroke-linecap="square"/>
<path d="M24.1591 26.3865C24.7742 26.3865 25.2727 25.8879 25.2727 25.2728C25.2727 24.6578 24.7742 24.1592 24.1591 24.1592C23.5441 24.1592 23.0455 24.6578 23.0455 25.2728C23.0455 25.8879 23.5441 26.3865 24.1591 26.3865Z" stroke="#6CBA7C" stroke-width="1.5" stroke-linecap="square"/>
<path d="M3 3H7.45455L10.4391 17.9116C10.5409 18.4243 10.8199 18.8849 11.227 19.2126C11.6342 19.5404 12.1437 19.7146 12.6664 19.7045H23.4909C24.0135 19.7146 24.523 19.5404 24.9302 19.2126C25.3374 18.8849 25.6163 18.4243 25.7182 17.9116L27.5 8.56818H9.01364" stroke="#6CBA7C" stroke-width="1.5" stroke-linecap="square"/>
</svg>
