<svg width="1682" height="20" viewBox="0 0 1682 20" fill="none" xmlns="http://www.w3.org/2000/svg">
<path d="M1 19L10.7214 15.1083H19.0255L26.5493 19L38.3407 15.1083L54.9675 11.2166H61.9464L67.2565 15.1083L78.4629 11.2166L90.7531 3.27673L97.7309 1L110.766 7.81107L121.532 12.6763L132.299 15.1083L143.534 10.0006L152.907 7.81107L168.616 12.1889L211 19L220.721 15.1083H229.026L236.549 19L248.341 15.1083L264.967 11.2166H271.946L277.256 15.1083L288.463 11.2166L300.753 3.27673L307.731 1L320.766 7.81107L331.532 12.6763L342.299 15.1083L353.534 10.0006L362.907 7.81107L378.616 12.1889L421 19L430.721 15.1083H439.026L446.549 19L458.341 15.1083L474.967 11.2166H481.946L487.256 15.1083L498.463 11.2166L510.753 3.27673L517.731 1L530.766 7.81107L541.532 12.6763L552.299 15.1083L563.534 10.0006L572.907 7.81107L588.616 12.1889L631 19L640.721 15.1083H649.026L656.549 19L668.341 15.1083L684.967 11.2166H691.946L697.256 15.1083L708.463 11.2166L720.753 3.27673L727.731 1L740.766 7.81107L751.532 12.6763L762.299 15.1083L773.534 10.0006L782.907 7.81107L798.616 12.1889L841 19L850.721 15.1083H859.025L866.549 19L878.341 15.1083L894.967 11.2166H901.946L907.256 15.1083L918.463 11.2166L930.753 3.27673L937.731 1L950.766 7.81107L961.532 12.6763L972.299 15.1083L983.534 10.0006L992.907 7.81107L1008.62 12.1889L1051 19L1060.72 15.1083H1069.03L1076.55 19L1088.34 15.1083L1104.97 11.2166H1111.95L1117.26 15.1083L1128.46 11.2166L1140.75 3.27673L1147.73 1L1160.77 7.81107L1171.53 12.6763L1182.3 15.1083L1193.53 10.0006L1202.91 7.81107L1218.62 12.1889L1261 19L1270.72 15.1083H1279.03L1286.55 19L1298.34 15.1083L1314.97 11.2166H1321.95L1327.26 15.1083L1338.46 11.2166L1350.75 3.27673L1357.73 1L1370.77 7.81107L1381.53 12.6763L1392.3 15.1083L1403.53 10.0006L1412.91 7.81107L1428.62 12.1889L1471 19L1480.72 15.1083H1489.03L1496.55 19L1508.34 15.1083L1524.97 11.2166H1531.95L1537.26 15.1083L1548.46 11.2166L1560.75 3.27673L1567.73 1L1580.77 7.81107L1591.53 12.6763L1602.3 15.1083L1613.53 10.0006L1622.91 7.81107L1638.62 12.1889L1681 19" stroke="#6CBA7C" stroke-miterlimit="10"/>
</svg>
