<svg width="300px" height="20" viewBox="0 0 380 20" fill="none" xmlns="http://www.w3.org/2000/svg">
<path d="M1 18.5L9.75694 14.8245H17.2373L24.0147 18.5L34.6363 14.8245L49.6135 11.149H55.9002L60.6834 14.8245L70.7781 11.149L81.849 3.65024L88.1346 1.5L99.8764 7.93268L109.574 12.5276L119.274 14.8245L129.394 10.0006L137.837 7.93268L151.987 12.0673L190.167 18.5L198.924 14.8245H206.404L213.181 18.5L223.803 14.8245L238.78 11.149H245.067L249.85 14.8245L259.945 11.149L271.016 3.65024L277.301 1.5L289.043 7.93268L298.741 12.5276L308.44 14.8245L318.561 10.0006L327.004 7.93268L341.154 12.0673L379.333 18.5" stroke="#6CBA7C" stroke-miterlimit="10" stroke-dasharray="4 4"/>
</svg>
