<svg width="566" height="91" viewBox="0 0 566 91" fill="none" xmlns="http://www.w3.org/2000/svg">
<path d="M383.633 13.9715C383.633 13.9715 361.312 35.3426 355.05 41.0084C348.815 46.6741 341.662 47.9475 327.384 50.439C313.105 52.9673 307.734 64.2803 296.128 75.9071C284.522 87.5523 274.697 89.2317 274.697 89.2317H0.341309C0.341309 89.2317 34.269 88.8257 43.2029 82.5325C52.1367 76.2393 64.6337 74.3384 69.1138 75.9256C73.5938 77.5127 90.5445 69.3186 100.369 72.4744C110.194 75.6118 140.558 74.1723 148.602 71.7547C156.645 69.337 172.705 64.2988 198.616 63.0438C224.526 61.7889 229.871 49.8299 231.652 46.0651C233.434 42.3002 243.259 24.6755 261.126 24.048C278.994 23.4206 285.229 12.0891 288.819 8.32425C292.408 4.55939 318.293 -1.73382 337.942 3.91346C357.591 9.5792 361.154 7.05084 365.163 5.79588C369.171 4.54093 372.944 6.44182 383.659 13.99L383.633 13.9715Z" fill="#FFFFF2"/>
<path d="M383.633 13.9715C383.633 13.9715 361.312 35.3426 355.05 41.0084C348.815 46.6741 341.662 47.9475 327.384 50.439C313.105 52.9673 307.734 64.2803 296.128 75.9071C284.522 87.5523 274.697 89.2317 274.697 89.2317H0.341309C0.341309 89.2317 34.269 88.8257 43.2029 82.5325C52.1367 76.2393 64.6337 74.3384 69.1138 75.9256C73.5938 77.5127 90.5445 69.3186 100.369 72.4744C110.194 75.6118 140.558 74.1723 148.602 71.7547C156.645 69.337 172.705 64.2988 198.616 63.0438C224.526 61.7889 229.871 49.8299 231.652 46.0651C233.434 42.3002 243.259 24.6755 261.126 24.048C278.994 23.4206 285.229 12.0891 288.819 8.32425C292.408 4.55939 318.293 -1.73382 337.942 3.91346C357.591 9.5792 361.154 7.05084 365.163 5.79588C369.171 4.54093 372.944 6.44182 383.659 13.99L383.633 13.9715Z" fill="url(#paint0_linear_206_7827)"/>
<path d="M383.633 13.9715C383.633 13.9715 361.312 35.3426 355.05 41.0084C348.815 46.6741 341.662 47.9475 327.384 50.439C313.105 52.9673 307.734 64.2803 296.128 75.9071C284.522 87.5523 274.697 89.2317 274.697 89.2317H0.341309C0.341309 89.2317 34.269 88.8257 43.2029 82.5325C52.1367 76.2393 64.6337 74.3384 69.1138 75.9256C73.5938 77.5127 90.5445 69.3186 100.369 72.4744C110.194 75.6118 140.558 74.1723 148.602 71.7547C156.645 69.337 172.705 64.2988 198.616 63.0438C224.526 61.7889 229.871 49.8299 231.652 46.0651C233.434 42.3002 243.259 24.6755 261.126 24.048C278.994 23.4206 285.229 12.0891 288.819 8.32425C292.408 4.55939 318.293 -1.73382 337.942 3.91346C357.591 9.5792 361.154 7.05084 365.163 5.79588C369.171 4.54093 372.944 6.44182 383.659 13.99L383.633 13.9715Z" stroke="#8DC996" stroke-width="3" stroke-miterlimit="10"/>
<path d="M564.904 89.2315C564.904 89.2315 556.861 85.6881 542.582 81.9048C528.304 78.1215 524.715 64.9076 504.332 63.4497C483.949 61.9917 482.744 50.4203 470.221 51.5461C457.75 52.6534 456.833 44.773 452.353 42.2631C447.873 39.7532 427.359 37.7785 427.359 37.7785C427.359 37.7785 402.339 30.3042 394.296 21.5011C386.253 12.6979 383.58 13.9529 383.58 13.9529C383.58 13.9529 361.259 35.324 354.997 40.9897C348.762 46.6555 341.61 47.9289 327.331 50.4203C313.053 52.9487 307.682 64.2617 296.076 75.8885C284.47 87.5337 274.645 89.2131 274.645 89.2131" fill="#FFFFF2"/>
<path d="M564.904 89.2315C564.904 89.2315 556.861 85.6881 542.582 81.9048C528.304 78.1215 524.715 64.9076 504.332 63.4497C483.949 61.9917 482.744 50.4203 470.221 51.5461C457.75 52.6534 456.833 44.773 452.353 42.2631C447.873 39.7532 427.359 37.7785 427.359 37.7785C427.359 37.7785 402.339 30.3042 394.296 21.5011C386.253 12.6979 383.58 13.9529 383.58 13.9529C383.58 13.9529 361.259 35.324 354.997 40.9897C348.762 46.6555 341.61 47.9289 327.331 50.4203C313.053 52.9487 307.682 64.2617 296.076 75.8885C284.47 87.5337 274.645 89.2131 274.645 89.2131" stroke="#8DC996" stroke-width="3" stroke-miterlimit="10"/>
<path d="M274.671 89.2316C274.671 89.2316 288.688 88.1243 296.442 80.3547C304.171 72.6035 320.388 65.0554 329.898 63.3759C339.409 61.715 352.299 60.866 356.464 57.0827C360.63 53.2994 387.903 39.052 387.903 39.052C387.903 39.052 393.667 38.2031 399.038 44.0718C404.409 49.9406 431.603 54.9235 431.603 54.9235C431.603 54.9235 451.986 56.2338 454.947 57.9132C457.907 59.5926 464.719 64.8339 473.05 64.1142C481.381 63.3575 492.306 71.0718 505.877 72.0499C519.448 73.028 534.12 81.8311 543.63 84.341C553.14 86.8509 564.878 89.2132 564.878 89.2132" stroke="#8DC996" stroke-miterlimit="10"/>
<path d="M274.671 89.2318C274.671 89.2318 292.905 88.6782 296.783 84.7841C300.634 80.9086 327.698 77.1252 332.466 76.2947C337.234 75.4643 355.836 75.0398 357.905 73.1574C360.001 71.2749 392.174 64.1513 392.174 64.1513C392.174 64.1513 401.055 63.7268 403.754 66.6612C406.452 69.5955 435.847 72.087 435.847 72.087C435.847 72.087 456.073 72.7514 457.566 73.5819C459.06 74.4123 471.74 77.0514 475.906 76.6823C480.071 76.3132 500.69 80.1703 507.476 80.6502C514.261 81.13 539.989 85.5408 544.757 86.7957C549.525 88.0507 564.93 89.2318 564.93 89.2318" stroke="#8DC996" stroke-miterlimit="10"/>
<defs>
<linearGradient id="paint0_linear_206_7827" x1="0.31511" y1="45.4376" x2="383.633" y2="45.4376" gradientUnits="userSpaceOnUse">
<stop stop-color="#8DC996"/>
<stop offset="0.13" stop-color="#ACD8AF" stop-opacity="0.5"/>
<stop offset="0.7" stop-color="#90CA98" stop-opacity="0.98"/>
<stop offset="0.87" stop-color="#CEE8CB" stop-opacity="0.8"/>
<stop offset="0.93" stop-color="#C4E3C2" stop-opacity="0.83"/>
<stop offset="0.98" stop-color="#A8D4A7" stop-opacity="0.94"/>
<stop offset="1" stop-color="#99CC99"/>
</linearGradient>
</defs>
</svg>
