<svg width="109" height="25" viewBox="0 0 109 25" fill="none" xmlns="http://www.w3.org/2000/svg">
<path d="M73.6736 3.99115C73.6736 3.99115 69.3904 9.64591 68.1889 11.1438C66.9924 12.6416 65.62 12.9734 62.8802 13.6369C60.1403 14.3054 59.1148 17.2913 56.8827 20.37C54.6557 23.4437 52.7704 23.8877 52.7704 23.8877H0.125488C0.125488 23.8877 6.63573 23.7804 8.34498 22.1166C10.0542 20.4529 12.4572 19.9552 13.3169 20.37C14.1765 20.7847 17.4291 18.6233 19.3144 19.4576C21.2046 20.287 27.0311 19.9065 28.5695 19.2624C30.1128 18.6233 33.1995 17.2913 38.1664 16.9644C43.1383 16.6278 44.1639 13.471 44.5057 12.4709C44.8526 11.4755 46.7328 6.81609 50.1613 6.65021C53.5899 6.48432 54.7914 3.48861 55.4701 2.4933C56.1588 1.49798 61.1257 -0.165757 64.9011 1.3321C68.6665 2.82995 69.3502 2.16153 70.1244 1.82975C70.8935 1.49798 71.6124 2.00052 73.6736 3.99115Z" stroke="#99CC99" stroke-width="1.50816" stroke-miterlimit="10"/>
<path d="M108.457 24.4878C108.457 24.4878 106.914 22.946 104.174 21.9507C101.434 20.9554 100.745 17.462 96.834 17.0717C92.9228 16.6863 92.6966 13.632 90.2936 13.9248C87.8956 14.2224 87.7247 12.1342 86.865 11.4706C86.0054 10.8071 82.064 10.285 82.064 10.285C82.064 10.285 77.2631 8.30903 75.7197 5.98174C74.1814 3.65934 73.6636 3.98623 73.6636 3.98623" stroke="#99CC99" stroke-width="1.50816" stroke-miterlimit="10"/>
</svg>
