<svg width="876" height="230" viewBox="0 0 876 230" fill="none" xmlns="http://www.w3.org/2000/svg">
<path d="M484.477 12.7676C483.429 13.3212 482.276 14.7792 481.123 16.717L484.477 12.7676Z" fill="url(#paint0_linear_536_19192)"/>
<path d="M481.123 16.7168C477.665 22.3825 474.128 32.1453 473.368 35.0428C470.801 44.6948 446.016 53.1289 429.747 63.962C413.503 74.7952 421.206 85.6469 421.206 92.2723C421.206 98.8977 402.395 105.523 393.854 112.149C385.287 118.774 385.287 130.807 376.746 134.424C368.205 138.041 365.638 142.249 365.638 148.284C365.638 154.319 359.638 162.125 356.232 163.343C352.8 164.543 356.232 171.759 356.232 171.759C356.232 171.759 351.962 175.985 337.422 185.01C322.881 194.053 314.34 180.802 301.503 189.236C288.691 197.67 257.043 191.044 255.34 194.662C253.637 198.26 248.502 200.678 233.962 207.912C228.198 210.773 224.871 214.538 222.932 218.063C219.526 224.282 210.775 228.232 201.318 228.232H-122.869C-122.869 228.232 -60.3321 226.681 -41.7046 221.163C-23.1032 215.627 30.8143 208.042 40.6128 207.34C50.4112 206.657 88.6356 203.206 103.359 194.92C118.057 186.634 132.755 193.536 136.685 182.5C140.588 171.445 139.619 171.445 156.281 161.092C172.944 150.738 225.866 118.977 249.393 121.044C272.92 123.111 287.617 117.593 300.376 112.056C313.109 106.538 355.263 100.319 375.829 83.0631C396.422 65.8076 399.356 67.1917 400.352 56.8199C401.321 46.4665 420.918 45.0824 428.778 43.0154C435.982 41.1145 466.923 31.2595 481.123 16.7168Z" fill="url(#paint1_linear_536_19192)" stroke="#8DC996" stroke-width="3" stroke-miterlimit="10"/>
<path d="M484.477 12.7676C483.507 14.1148 482.381 15.4436 481.123 16.717L484.477 12.7676Z" fill="url(#paint2_linear_536_19192)"/>
<path d="M874.371 228.231C870.939 217.379 840.993 198.85 841.858 195.861C842.722 192.853 840.993 186.227 836.749 185.009C832.478 183.81 831.614 175.985 828.182 173.567C824.75 171.149 811.074 163.324 810.235 160.907C809.371 158.489 796.56 136.804 789.722 135.014C782.884 133.224 771.749 125.38 768.343 119.364C764.911 113.329 758.073 105.523 747.829 101.887C737.559 98.2882 720.478 95.2616 717.91 89.8358C715.343 84.4284 700.802 80.8112 700.802 80.8112C700.802 80.8112 675.992 79.6116 675.153 67.5604C674.289 55.5092 661.477 46.4846 658.884 41.6678C656.316 36.851 643.505 27.2174 643.505 27.2174C643.505 27.2174 609.289 25.9993 599.045 20.5735C588.775 15.1661 564.017 13.3391 559.72 10.3493C555.45 7.34114 556.288 3.72393 547.747 4.92352C539.206 6.14156 530.666 6.14156 513.558 2.50589C496.45 -1.09287 491.315 9.1313 484.477 12.7485C480.39 14.8893 474.39 31.1299 473.368 35.0239C470.801 44.6575 446.017 53.0915 429.773 63.9247C413.53 74.7579 421.232 85.6095 421.232 92.2349C421.232 98.8604 402.421 105.486 393.88 112.111C385.34 118.737 385.34 130.788 376.772 134.387C368.232 138.004 365.664 142.212 365.664 148.246C365.664 154.281 359.691 162.106 356.259 163.306C352.827 164.505 356.259 171.74 356.259 171.74C356.259 171.74 351.988 175.948 337.448 184.991C322.907 194.034 314.366 180.783 301.529 189.198C288.691 197.614 263.409 193.185 255.366 194.624C250.126 195.565 243.419 199.146 233.988 207.875C222.015 218.948 198.619 228.194 198.619 228.194" fill="#FFFFF2"/>
<path d="M874.371 228.231C870.939 217.379 840.993 198.85 841.858 195.861C842.722 192.853 840.993 186.227 836.749 185.009C832.478 183.81 831.614 175.985 828.182 173.567C824.75 171.149 811.074 163.324 810.235 160.907C809.371 158.489 796.56 136.804 789.722 135.014C782.884 133.224 771.749 125.38 768.343 119.364C764.911 113.329 758.073 105.523 747.829 101.887C737.559 98.2882 720.478 95.2616 717.91 89.8358C715.343 84.4284 700.802 80.8112 700.802 80.8112C700.802 80.8112 675.992 79.6116 675.153 67.5604C674.289 55.5092 661.477 46.4846 658.884 41.6678C656.316 36.851 643.505 27.2174 643.505 27.2174C643.505 27.2174 609.289 25.9993 599.045 20.5735C588.775 15.1661 564.017 13.3391 559.72 10.3493C555.45 7.34114 556.288 3.72393 547.747 4.92352C539.206 6.14156 530.666 6.14156 513.558 2.50589C496.45 -1.09287 491.315 9.1313 484.477 12.7485C480.39 14.8893 474.39 31.1299 473.368 35.0239C470.801 44.6575 446.017 53.0915 429.773 63.9247C413.53 74.7579 421.232 85.6095 421.232 92.2349C421.232 98.8604 402.421 105.486 393.88 112.111C385.34 118.737 385.34 130.788 376.772 134.387C368.232 138.004 365.664 142.212 365.664 148.246C365.664 154.281 359.691 162.106 356.259 163.306C352.827 164.505 356.259 171.74 356.259 171.74C356.259 171.74 351.988 175.948 337.448 184.991C322.907 194.034 314.366 180.783 301.529 189.198C288.691 197.614 263.409 193.185 255.366 194.624C250.126 195.565 243.419 199.146 233.988 207.875C222.015 218.948 198.619 228.194 198.619 228.194" stroke="#8DC996" stroke-width="3" stroke-linecap="round" stroke-linejoin="round"/>
<path d="M198.593 228.231C198.593 228.231 223.718 221.292 232.704 212.987C239.778 206.436 249.576 203.76 253.506 203.058C259.532 201.988 286.438 205.31 296.053 198.998C305.668 192.686 318.453 202.615 329.352 195.842C340.251 189.069 347.849 185.913 347.849 185.913C347.849 185.913 347.351 180.488 349.918 179.583C352.486 178.679 360.948 172.81 360.948 168.289C360.948 163.767 366.791 160.611 373.209 157.898C379.628 155.186 385.654 146.161 392.073 141.178C398.491 136.195 419.215 131.249 419.215 126.266C419.215 121.283 420.63 113.163 432.812 105.043C444.995 96.9041 473.656 90.5924 475.569 83.358C476.355 80.4421 486.441 68.2617 489.507 66.6376C494.642 63.9247 504.283 56.2474 517.121 58.9603C529.958 61.6732 542.088 61.6732 548.507 60.7689C554.926 59.8646 556.891 62.5775 560.087 64.829C563.309 67.0806 588.853 68.4462 596.556 72.5064C604.258 76.5665 637.531 77.4893 637.531 77.4893C637.531 77.4893 651.417 84.7237 653.329 88.3225C655.268 91.9397 671.616 98.7127 672.271 107.737C672.9 116.78 697.239 117.666 697.239 117.666C697.239 117.666 711.779 120.379 713.692 124.439C715.604 128.499 734.284 130.769 741.987 133.482C749.689 136.195 760.274 142.064 762.815 146.585C765.382 151.089 778.954 156.976 784.089 158.323C789.224 159.67 805.939 175.929 806.567 177.738C807.196 179.546 821.71 185.415 824.278 187.224C826.845 189.032 830.592 194.901 833.814 195.805C837.037 196.71 841.15 201.674 840.495 203.944C839.84 206.196 871.803 220.074 874.37 228.213" stroke="#8DC996" stroke-linecap="round" stroke-linejoin="round"/>
<path d="M198.593 228.232C198.593 228.232 225.447 223.618 231.446 218.063C236.162 213.708 249.052 211.899 251.672 211.438C255.68 210.718 284.185 212.951 290.604 208.725C297.023 204.499 314.052 211.143 321.309 206.621C328.566 202.099 339.491 199.996 339.491 199.996C339.491 199.996 341.901 196.378 343.631 195.788C345.36 195.197 356.259 191.266 356.259 188.258C356.259 185.25 365.402 183.146 369.672 181.337C373.943 179.529 386.021 173.512 390.291 170.19C394.562 166.869 417.25 163.565 417.25 160.262C417.25 156.958 427.756 151.532 435.877 146.106C443.999 140.681 476.512 136.473 477.796 131.656C478.32 129.718 492.493 121.598 494.537 120.509C497.969 118.701 512.117 113.588 520.657 115.397C529.198 117.206 544.97 117.206 549.241 116.597C553.511 116.006 558.279 117.796 560.428 119.31C562.576 120.804 588.932 121.727 594.067 124.422C599.202 127.135 631.532 127.744 631.532 127.744C631.532 127.744 646.465 132.56 647.749 134.978C649.033 137.396 668.944 141.899 669.363 147.934C669.782 153.95 693.676 154.559 693.676 154.559C693.676 154.559 708.216 156.368 709.474 159.08C710.758 161.793 731.009 163.307 736.144 165.097C741.279 166.905 755.584 170.818 757.313 173.826C759.016 176.834 775.076 180.747 778.482 181.651C781.888 182.555 802.48 193.389 802.9 194.607C803.319 195.825 818.671 199.737 820.374 200.937C822.077 202.136 828.732 206.049 830.854 206.658C832.976 207.267 839.552 210.57 839.133 212.084C838.714 213.579 872.668 222.843 874.397 228.269" stroke="#8DC996" stroke-linecap="round" stroke-linejoin="round"/>
<path d="M198.593 228.232C198.593 228.232 227.176 225.925 230.163 223.157C232.521 220.979 248.502 220.075 249.812 219.853C251.829 219.502 281.932 220.61 285.128 218.506C288.324 216.402 309.598 219.705 313.24 217.454C316.881 215.202 331.081 214.15 331.081 214.15C331.081 214.15 336.426 212.342 337.264 212.047C338.103 211.751 351.516 209.795 351.516 208.282C351.516 206.768 363.935 205.716 366.083 204.812C368.231 203.908 386.309 200.9 388.457 199.239C390.605 197.578 415.206 195.935 415.206 194.274C415.206 192.613 434.803 189.9 438.864 187.206C442.925 184.511 479.289 182.389 479.944 179.971C480.206 178.993 498.493 174.933 499.515 174.398C501.218 173.494 519.898 170.928 524.168 171.833C528.439 172.737 547.826 172.737 549.948 172.442C552.096 172.146 559.668 173.051 560.742 173.789C561.816 174.546 588.958 174.989 591.526 176.354C594.093 177.701 625.48 178.015 625.48 178.015C625.48 178.015 641.487 180.433 642.116 181.632C642.771 182.832 666.193 185.102 666.429 188.11C666.638 191.118 690.087 191.414 690.087 191.414C690.087 191.414 704.601 192.318 705.256 193.665C705.885 195.012 727.735 195.769 730.302 196.673C732.87 197.578 750.921 199.534 751.785 201.047C752.65 202.542 771.146 204.517 772.849 204.96C774.552 205.403 799.022 210.829 799.232 211.438C799.441 212.047 815.632 214.003 816.471 214.593C817.309 215.184 826.845 217.159 827.92 217.454C828.994 217.749 837.98 219.41 837.77 220.167C837.561 220.924 873.532 225.537 874.397 228.25" stroke="#8DC996" stroke-linecap="round" stroke-linejoin="round"/>
<defs>
<linearGradient id="paint0_linear_536_19192" x1="481.123" y1="14.7423" x2="484.477" y2="14.7423" gradientUnits="userSpaceOnUse">
<stop stop-color="#8DC996"/>
<stop offset="0.13" stop-color="#ACD8AF" stop-opacity="0.5"/>
<stop offset="0.7" stop-color="#90CA98" stop-opacity="0.98"/>
<stop offset="0.87" stop-color="#CEE8CB" stop-opacity="0.8"/>
<stop offset="0.93" stop-color="#C4E3C2" stop-opacity="0.83"/>
<stop offset="0.98" stop-color="#A8D4A7" stop-opacity="0.94"/>
<stop offset="1" stop-color="#99CC99"/>
</linearGradient>
<linearGradient id="paint1_linear_536_19192" x1="-122.869" y1="122.483" x2="481.123" y2="122.483" gradientUnits="userSpaceOnUse">
<stop stop-color="#8DC996"/>
<stop offset="0.13" stop-color="#ACD8AF" stop-opacity="0.5"/>
<stop offset="0.7" stop-color="#90CA98" stop-opacity="0.98"/>
<stop offset="0.87" stop-color="#CEE8CB" stop-opacity="0.8"/>
<stop offset="0.93" stop-color="#C4E3C2" stop-opacity="0.83"/>
<stop offset="0.98" stop-color="#A8D4A7" stop-opacity="0.94"/>
<stop offset="1" stop-color="#99CC99"/>
</linearGradient>
<linearGradient id="paint2_linear_536_19192" x1="481.123" y1="14.7423" x2="484.477" y2="14.7423" gradientUnits="userSpaceOnUse">
<stop stop-color="#8DC996"/>
<stop offset="0.13" stop-color="#ACD8AF" stop-opacity="0.5"/>
<stop offset="0.7" stop-color="#90CA98" stop-opacity="0.98"/>
<stop offset="0.87" stop-color="#CEE8CB" stop-opacity="0.8"/>
<stop offset="0.93" stop-color="#C4E3C2" stop-opacity="0.83"/>
<stop offset="0.98" stop-color="#A8D4A7" stop-opacity="0.94"/>
<stop offset="1" stop-color="#99CC99"/>
</linearGradient>
</defs>
</svg>
