<svg width="25" height="25" viewBox="0 0 25 25" fill="none" xmlns="http://www.w3.org/2000/svg">
<path d="M21.3401 5.11012C20.8294 4.59912 20.2229 4.19376 19.5555 3.9172C18.888 3.64064 18.1726 3.49829 17.4501 3.49829C16.7276 3.49829 16.0122 3.64064 15.3448 3.9172C14.6773 4.19376 14.0709 4.59912 13.5601 5.11012L12.5001 6.17012L11.4401 5.11012C10.4084 4.07842 9.00915 3.49883 7.55012 3.49883C6.09109 3.49883 4.69181 4.07842 3.66012 5.11012C2.62843 6.14181 2.04883 7.54108 2.04883 9.00012C2.04883 10.4591 2.62843 11.8584 3.66012 12.8901L4.72012 13.9501L12.5001 21.7301L20.2801 13.9501L21.3401 12.8901C21.8511 12.3794 22.2565 11.7729 22.533 11.1055C22.8096 10.438 22.9519 9.7226 22.9519 9.00012C22.9519 8.27763 22.8096 7.56222 22.533 6.89476C22.2565 6.2273 21.8511 5.62087 21.3401 5.11012Z" stroke="#6CBA7C" stroke-width="2" stroke-linecap="round" stroke-linejoin="round"/>
</svg>
