<svg width="177" height="110" viewBox="0 0 177 110" fill="none" xmlns="http://www.w3.org/2000/svg">
<rect width="177" height="110" rx="8" fill="#CEE8CB" fill-opacity="0.7"/>
<g clip-path="url(#clip0_536_20562)">
<path d="M126.949 34.1426C136.931 34.1426 146.917 34.1426 156.899 34.1426C159.403 34.1426 160.001 34.735 160.001 37.1975C160.001 48.7599 160.001 60.3223 160.001 71.8846C160.001 74.1758 159.179 74.9951 156.848 74.9951C136.917 74.9951 116.991 74.9951 97.06 74.9951C94.6265 74.9951 93.9492 74.3147 93.9492 71.9032C93.9492 60.3037 93.9492 48.6997 93.9492 37.1003C93.9492 34.6888 94.5144 34.1426 96.9946 34.1426C106.976 34.1426 116.963 34.1426 126.945 34.1426L126.949 34.1426ZM103.567 52.884H103.571C103.571 55.5316 103.59 58.1838 103.562 60.8314C103.548 61.9099 104.02 62.3311 105.099 62.3496C107.766 62.3959 107.752 62.4237 107.766 59.7159C107.784 56.3694 107.257 56.3601 111.166 56.3231C114.763 56.2907 117.505 53.4811 117.505 49.9818C117.505 46.5335 114.697 43.71 111.157 43.636C109.102 43.5943 107.042 43.6545 104.987 43.6082C103.926 43.585 103.539 44.0155 103.553 45.0477C103.595 47.6583 103.567 50.2688 103.567 52.8794V52.884ZM133.886 55.601C133.886 53.8329 133.89 52.0647 133.886 50.3012C133.886 49.8476 133.956 49.2551 133.409 49.1117C132.391 48.8386 131.097 48.5794 130.368 49.1718C129.462 49.9078 128.99 49.5699 128.28 49.1533C127.743 48.8339 127.108 48.7645 126.482 48.7228C122.75 48.4822 119.966 50.6576 119.317 54.504C118.855 57.2442 119.723 59.6326 121.956 61.3637C124.119 63.0393 126.491 63.192 128.911 61.8266C129.182 61.6738 129.509 61.4285 129.752 61.7247C130.546 62.6921 131.615 62.2431 132.582 62.3311C133.531 62.419 133.909 61.9423 133.89 61.0212C133.862 59.216 133.881 57.4108 133.886 55.6057V55.601ZM139.136 48.9543C136.936 48.9543 136.87 49.0469 137.716 51.0649C139.089 54.3235 140.434 57.596 141.859 60.836C142.363 61.9793 142.405 63.0115 141.821 64.127C141.415 64.9093 141.116 65.747 140.803 66.5756C140.649 66.9783 140.551 67.4087 141.023 67.7003C142.186 68.4224 144.619 67.654 145.133 66.3951C147.156 61.447 149.169 56.499 151.187 51.5463C152.261 48.9126 152.261 48.9496 149.36 48.9358C148.286 48.9311 147.735 49.3662 147.384 50.3244C146.721 52.1249 145.988 53.9023 145.255 55.6797C145.124 56.0037 145.142 56.5499 144.624 56.5221C144.18 56.499 144.063 56.0222 143.919 55.6843C143.227 54.0551 142.564 52.4165 141.882 50.7826C141.144 49.0191 141.041 48.9543 139.136 48.9543Z" fill="#08BF5B"/>
<path d="M65.2827 54.6005C65.2827 57.7897 65.292 60.9788 65.2827 64.168C65.2734 65.8065 64.8483 66.0981 63.2088 66.2601C60.9481 66.4869 59.388 65.8898 58.1129 63.8208C56.0997 60.5483 53.6988 57.5027 51.4568 54.3691C51.2419 54.0682 51.0691 53.5406 50.6487 53.6609C50.1957 53.7905 50.4105 54.3274 50.4058 54.6838C50.3918 57.91 50.4058 61.1408 50.3918 64.367C50.3825 65.8898 50.0555 66.2092 48.5562 66.2323C47.7388 66.2462 46.926 66.2416 46.1086 66.2185C45.123 66.186 44.6233 65.6491 44.5765 64.691C44.5625 64.4225 44.5579 64.1541 44.5579 63.8856C44.5579 57.623 44.5579 51.3605 44.5579 45.0979C44.5579 43.0844 44.9222 42.9178 46.9213 42.6956C49.4717 42.4133 51.0177 43.4038 52.3209 45.5145C54.1239 48.4259 56.2258 51.1522 58.2156 53.9479C58.4445 54.2719 58.6687 54.832 59.1498 54.6514C59.6169 54.4755 59.4487 53.897 59.4067 53.5035C59.1218 50.7819 59.2806 48.051 59.2666 45.3247C59.2526 43.0891 59.6449 42.7373 61.9196 42.7326C64.1586 42.7296 65.2796 43.842 65.2827 46.0699C65.2827 48.9119 65.2827 51.7585 65.2827 54.6005Z" fill="black"/>
<path d="M68.3527 54.5366C68.3527 51.4261 68.334 48.311 68.3573 45.2006C68.3713 43.039 68.703 42.7335 70.8703 42.7335C74.7565 42.7335 78.638 42.7242 82.5242 42.7381C84.1637 42.7427 84.4393 43.0297 84.4533 44.6035C84.458 45.3718 84.4253 46.1402 84.458 46.9085C84.5093 48.0194 83.8834 48.436 82.8839 48.4453C80.5531 48.4684 78.2223 48.4638 75.8915 48.4684C74.3875 48.473 73.5607 49.9449 74.3174 51.2687C74.607 51.7733 75.1115 51.6807 75.5645 51.6807C77.9327 51.6946 80.3055 51.6807 82.6737 51.6946C84.1637 51.7038 84.4299 51.9769 84.4486 53.4581C84.458 54.2264 84.4299 54.9948 84.4486 55.7632C84.4766 56.837 83.9535 57.2906 82.8839 57.2814C80.4737 57.2628 78.0682 57.2721 75.658 57.286C74.2614 57.2952 74.2006 57.3739 74.2006 58.9662C74.2006 60.5075 74.2941 60.6279 75.6953 60.6371C77.9093 60.651 80.1234 60.6371 82.3374 60.6464C84.2524 60.6464 84.444 60.8454 84.444 62.7848C84.444 63.4375 84.4206 64.0901 84.444 64.7428C84.4813 65.8583 83.8461 66.2285 82.8372 66.2285C80.0393 66.2285 77.2414 66.2285 74.4435 66.2285C73.0469 66.2285 71.6456 66.2471 70.249 66.2193C68.8291 66.1961 68.3807 65.7935 68.3667 64.3215C68.3246 61.0583 68.3527 57.7905 68.3527 54.5273C68.3527 54.5273 68.3527 54.5273 68.348 54.5273L68.3527 54.5366Z" fill="black"/>
<path d="M17.0087 54.44C17.0087 51.1352 17.0041 47.8303 17.0087 44.5254C17.0087 43.0396 17.2797 42.7758 18.7603 42.7388C19.461 42.7203 20.1616 42.7249 20.8576 42.7388C22.3289 42.7712 22.6419 43.0674 22.6419 44.5162C22.6512 49.2791 22.6419 54.0466 22.6419 58.8095C22.6419 60.4943 22.6419 60.4989 24.3 60.5036C26.5141 60.5036 28.7281 60.485 30.9421 60.5128C32.5769 60.5313 32.8992 60.8785 32.9132 62.5078C32.9179 63.2761 32.8992 64.0445 32.9085 64.8128C32.9179 65.7756 32.4087 66.2292 31.4699 66.2292C27.1166 66.2338 22.768 66.2292 18.4147 66.2292C17.3918 66.2292 16.9807 65.7015 16.9854 64.7017C17.0087 61.2812 16.9947 57.8652 16.9947 54.4446L17.0087 54.44Z" fill="black"/>
<path d="M35.6367 54.3694C35.6367 51.1062 35.632 47.8384 35.6367 44.5752C35.6367 43.0709 35.959 42.7515 37.4911 42.7376C41.7276 42.7006 41.3165 42.5524 41.3212 46.422C41.3259 52.3374 41.3212 58.2528 41.3212 64.1683C41.3212 65.992 41.083 66.2141 39.238 66.2373C35.221 66.2836 35.6507 66.2373 35.6414 62.7797C35.632 59.9747 35.6414 57.1697 35.6414 54.3694H35.6367Z" fill="black"/>
<path d="M107.76 50.0519C107.76 49.7094 107.774 49.3623 107.76 49.0197C107.713 48.0153 108.176 47.5154 109.213 47.5571C109.717 47.5756 110.222 47.5478 110.721 47.5664C112.291 47.6312 113.132 48.4967 113.136 50.0473C113.141 51.5007 112.286 52.3616 110.759 52.4357C110.567 52.445 110.371 52.4403 110.18 52.4403C108.567 52.4496 107.76 51.655 107.76 50.0566V50.0519Z" fill="#08BF5B"/>
<path d="M123.337 55.6287C123.347 53.6014 124.552 52.3841 126.556 52.3887C128.602 52.3887 129.919 53.6847 129.909 55.675C129.9 57.5913 128.41 59.1002 126.56 59.0586C124.538 59.0123 123.328 57.7255 123.333 55.6287H123.337Z" fill="#08BF5B"/>
</g>
<defs>
<clipPath id="clip0_536_20562">
<rect width="143" height="40.8571" fill="white" transform="translate(17 34.1426)"/>
</clipPath>
</defs>
</svg>
