<svg width="183" height="116" viewBox="0 0 183 116" fill="none" xmlns="http://www.w3.org/2000/svg">
<rect x="1.5" y="1.5" width="180" height="113" rx="9.5" fill="#CEE8CB" fill-opacity="0.7"/>
<g clip-path="url(#clip0_2515_18438)">
<path d="M129.949 38C139.931 38 149.917 38 159.899 38C162.403 38 163.001 38.5925 163.001 41.0549C163.001 52.6173 163.001 64.1797 163.001 75.7421C163.001 78.0332 162.179 78.8525 159.848 78.8525C139.917 78.8525 119.991 78.8525 100.06 78.8525C97.6265 78.8525 96.9492 78.1721 96.9492 75.7606C96.9492 64.1612 96.9492 52.5571 96.9492 40.9577C96.9492 38.5462 97.5144 38 99.9946 38C109.976 38 119.963 38 129.945 38L129.949 38ZM106.567 56.7414H106.571C106.571 59.389 106.59 62.0412 106.562 64.6888C106.548 65.7673 107.02 66.1885 108.099 66.207C110.766 66.2533 110.752 66.2811 110.766 63.5733C110.784 60.2268 110.257 60.2175 114.166 60.1805C117.763 60.1481 120.505 57.3385 120.505 53.8393C120.505 50.3909 117.697 47.5674 114.157 47.4934C112.102 47.4517 110.042 47.5119 107.987 47.4656C106.926 47.4425 106.539 47.8729 106.553 48.9051C106.595 51.5157 106.567 54.1262 106.567 56.7368V56.7414ZM136.886 59.4584C136.886 57.6903 136.89 55.9222 136.886 54.1586C136.886 53.705 136.956 53.1126 136.409 52.9691C135.391 52.696 134.097 52.4368 133.368 53.0292C132.462 53.7652 131.99 53.4273 131.28 53.0107C130.743 52.6914 130.108 52.6219 129.482 52.5803C125.75 52.3396 122.966 54.515 122.317 58.3615C121.855 61.1016 122.723 63.49 124.956 65.2211C127.119 66.8967 129.491 67.0494 131.911 65.684C132.182 65.5312 132.509 65.2859 132.752 65.5822C133.546 66.5495 134.615 66.1006 135.582 66.1885C136.531 66.2765 136.909 65.7997 136.89 64.8786C136.862 63.0734 136.881 61.2683 136.886 59.4631V59.4584ZM142.136 52.8117C139.936 52.8117 139.87 52.9043 140.716 54.9224C142.089 58.1809 143.434 61.4534 144.859 64.6935C145.363 65.8367 145.405 66.8689 144.821 67.9844C144.415 68.7667 144.116 69.6045 143.803 70.433C143.649 70.8357 143.551 71.2661 144.023 71.5578C145.186 72.2798 147.619 71.5115 148.133 70.2525C150.156 65.3044 152.169 60.3564 154.187 55.4037C155.261 52.77 155.261 52.8071 152.36 52.7932C151.286 52.7886 150.735 53.2236 150.384 54.1818C149.721 55.9823 148.988 57.7597 148.255 59.5371C148.124 59.8611 148.142 60.4073 147.624 60.3795C147.18 60.3564 147.063 59.8797 146.919 59.5418C146.227 57.9125 145.564 56.2739 144.882 54.64C144.144 52.8765 144.041 52.8117 142.136 52.8117Z" fill="#08BF5B"/>
<path d="M68.2825 58.4579C68.2825 61.6471 68.2918 64.8362 68.2825 68.0254C68.2731 69.6639 67.8481 69.9555 66.2086 70.1175C63.9479 70.3443 62.3878 69.7472 61.1126 67.6782C59.0994 64.4058 56.6986 61.3601 54.4566 58.2265C54.2417 57.9256 54.0689 57.398 53.6485 57.5183C53.1954 57.6479 53.4103 58.1849 53.4056 58.5413C53.3916 61.7674 53.4056 64.9982 53.3916 68.2244C53.3822 69.7472 53.0553 70.0666 51.5559 70.0898C50.7385 70.1036 49.9258 70.099 49.1084 70.0759C48.1228 70.0435 47.623 69.5065 47.5763 68.5484C47.5623 68.28 47.5576 68.0115 47.5576 67.743C47.5576 61.4805 47.5576 55.2179 47.5576 48.9553C47.5576 46.9418 47.9219 46.7752 49.9211 46.553C52.4714 46.2707 54.0175 47.2612 55.3207 49.3719C57.1236 52.2833 59.2256 55.0096 61.2154 57.8053C61.4442 58.1293 61.6684 58.6894 62.1495 58.5089C62.6166 58.333 62.4485 57.7544 62.4065 57.361C62.1215 54.6393 62.2803 51.9084 62.2663 49.1821C62.2523 46.9465 62.6447 46.5947 64.9194 46.5901C67.1583 46.587 68.2793 47.6994 68.2825 49.9273C68.2825 52.7693 68.2825 55.616 68.2825 58.4579Z" fill="black"/>
<path d="M71.3529 58.394C71.3529 55.2835 71.3342 52.1684 71.3576 49.058C71.3716 46.8964 71.7032 46.5909 73.8705 46.5909C77.7567 46.5909 81.6383 46.5817 85.5244 46.5955C87.1639 46.6002 87.4395 46.8871 87.4535 48.4609C87.4582 49.2292 87.4255 49.9976 87.4582 50.766C87.5096 51.8768 86.8837 52.2934 85.8841 52.3027C83.5533 52.3258 81.2225 52.3212 78.8918 52.3258C77.3877 52.3304 76.561 53.8024 77.3177 55.1262C77.6073 55.6307 78.1117 55.5381 78.5648 55.5381C80.9329 55.552 83.3058 55.5381 85.6739 55.552C87.1639 55.5612 87.4302 55.8343 87.4489 57.3155C87.4582 58.0839 87.4302 58.8522 87.4489 59.6206C87.4769 60.6944 86.9538 61.148 85.8841 61.1388C83.4739 61.1203 81.0684 61.1295 78.6582 61.1434C77.2616 61.1527 77.2009 61.2314 77.2009 62.8236C77.2009 64.365 77.2943 64.4853 78.6956 64.4946C80.9096 64.5084 83.1236 64.4946 85.3376 64.5038C87.2527 64.5038 87.4442 64.7028 87.4442 66.6423C87.4442 67.2949 87.4208 67.9475 87.4442 68.6002C87.4816 69.7157 86.8463 70.086 85.8374 70.086C83.0395 70.086 80.2416 70.086 77.4438 70.086C76.0472 70.086 74.6459 70.1045 73.2493 70.0767C71.8293 70.0536 71.3809 69.6509 71.3669 68.179C71.3249 64.9158 71.3529 61.6479 71.3529 58.3847C71.3529 58.3847 71.3529 58.3847 71.3482 58.3847L71.3529 58.394Z" fill="black"/>
<path d="M20.0087 58.2974C20.0087 54.9926 20.0041 51.6877 20.0087 48.3829C20.0087 46.8971 20.2797 46.6332 21.7603 46.5962C22.461 46.5777 23.1616 46.5823 23.8576 46.5962C25.3289 46.6286 25.6419 46.9248 25.6419 48.3736C25.6512 53.1365 25.6419 57.904 25.6419 62.6669C25.6419 64.3517 25.6419 64.3563 27.3 64.361C29.5141 64.361 31.7281 64.3425 33.9421 64.3702C35.5769 64.3887 35.8992 64.7359 35.9132 66.3652C35.9179 67.1335 35.8992 67.9019 35.9085 68.6703C35.9179 69.633 35.4087 70.0866 34.4699 70.0866C30.1166 70.0913 25.768 70.0866 21.4147 70.0866C20.3918 70.0866 19.9807 69.559 19.9854 68.5592C20.0087 65.1386 19.9947 61.7226 19.9947 58.3021L20.0087 58.2974Z" fill="black"/>
<path d="M38.6365 58.2268C38.6365 54.9636 38.6318 51.6958 38.6365 48.4326C38.6365 46.9283 38.9588 46.6089 40.4908 46.595C44.7273 46.558 44.3163 46.4099 44.321 50.2794C44.3256 56.1948 44.321 62.1103 44.321 68.0257C44.321 69.8494 44.0828 70.0716 42.2377 70.0947C38.2208 70.141 38.6505 70.0947 38.6411 66.6371C38.6318 63.8321 38.6411 61.0272 38.6411 58.2268H38.6365Z" fill="black"/>
<path d="M110.76 53.9094C110.76 53.5668 110.774 53.2197 110.76 52.8772C110.713 51.8728 111.176 51.3729 112.213 51.4145C112.717 51.433 113.222 51.4053 113.721 51.4238C115.291 51.4886 116.132 52.3541 116.136 53.9047C116.141 55.3581 115.286 56.2191 113.759 56.2931C113.567 56.3024 113.371 56.2977 113.18 56.2977C111.567 56.307 110.76 55.5124 110.76 53.914V53.9094Z" fill="#08BF5B"/>
<path d="M126.337 59.4862C126.347 57.4588 127.552 56.2415 129.555 56.2461C131.601 56.2461 132.919 57.5421 132.909 59.5325C132.9 61.4487 131.41 62.9577 129.56 62.916C127.538 62.8697 126.328 61.5829 126.333 59.4862H126.337Z" fill="#08BF5B"/>
</g>
<rect x="1.5" y="1.5" width="180" height="113" rx="9.5" stroke="#ADD9B1" stroke-width="3"/>
<defs>
<clipPath id="clip0_2515_18438">
<rect width="143" height="40.8571" fill="white" transform="translate(20 38)"/>
</clipPath>
</defs>
</svg>
