<svg width="109" height="25" viewBox="0 0 109 25" fill="none" xmlns="http://www.w3.org/2000/svg">
<g clip-path="url(#clip0_870_13280)">
<path d="M35.3262 3.99115C35.3262 3.99115 39.6094 9.64591 40.8109 11.1438C42.0073 12.6416 43.3798 12.9734 46.1196 13.6369C48.8594 14.3054 49.885 17.2913 52.1171 20.37C54.3441 23.4437 56.2293 23.8877 56.2293 23.8877H108.874C108.874 23.8877 102.364 23.7804 100.655 22.1166C98.9455 20.4529 96.5425 19.9552 95.6829 20.37C94.8232 20.7847 91.5706 18.6233 89.6854 19.4576C87.7952 20.287 81.9686 19.9065 80.4303 19.2624C78.887 18.6233 75.8002 17.2913 70.8334 16.9644C65.8614 16.6278 64.8359 13.471 64.494 12.4709C64.1472 11.4755 62.267 6.81609 58.8384 6.65021C55.4099 6.48432 54.2084 3.48861 53.5297 2.4933C52.841 1.49798 47.8741 -0.165757 44.0986 1.3321C40.3333 2.82995 39.6496 2.16153 38.8754 1.82975C38.1062 1.49798 37.3873 2.00052 35.3262 3.99115Z" stroke="#99CC99" stroke-width="1.50816" stroke-miterlimit="10"/>
<path d="M0.542845 24.4878C0.542845 24.4878 2.0862 22.946 4.82603 21.9507C7.56586 20.9554 8.25459 17.462 12.1658 17.0717C16.0769 16.6863 16.3032 13.632 18.7062 13.9248C21.1041 14.2224 21.2751 12.1342 22.1347 11.4706C22.9944 10.8071 26.9357 10.285 26.9357 10.285C26.9357 10.285 31.7367 8.30903 33.2801 5.98174C34.8184 3.65934 35.3362 3.98623 35.3362 3.98623" stroke="#99CC99" stroke-width="1.50816" stroke-miterlimit="10"/>
<path d="M56.2295 23.8875C56.2295 23.8875 54.3443 23.4484 52.1172 20.3697C49.8902 17.296 48.8596 14.3003 46.1198 13.6367C43.3799 12.9732 42.0075 12.6365 40.806 11.1436C39.6045 9.65058 35.3213 3.99094 35.3213 3.99094C35.3213 3.99094 34.8085 3.65917 33.2652 5.98645C31.7218 8.31373 26.9259 10.2897 26.9259 10.2897C26.9259 10.2897 22.9845 10.8118 22.1299 11.4753C21.2753 12.1389 21.0993 14.2271 18.7014 13.9295C16.3034 13.6318 16.0721 16.691 12.161 17.0764C8.24979 17.4619 7.56106 20.9552 4.82123 21.9505C2.0814 22.9507 0.538046 24.4876 0.538046 24.4876" stroke="#99CC99" stroke-width="0.502721" stroke-miterlimit="10"/>
<path d="M52.8914 23.9999C52.3233 23.7071 50.8503 23.2046 49.0506 21.5701C46.9693 19.6819 45.2802 18.1646 42.8369 17.7011C40.8311 17.3254 39.5542 17.0278 38.2923 16.2764C36.7741 15.3738 33.6321 12.5391 32.6719 12.4708C32.3552 12.4464 31.8977 12.3732 30.7012 13.4027C29.2333 14.6614 25.8952 15.447 25.0758 15.4031C24.6736 15.3835 22.2907 15.6177 21.4562 15.9593C20.6217 16.3008 20.1843 17.34 18.6158 17.2668C16.801 17.1839 16.0972 18.9159 13.6288 19.4575C11.1605 19.9991 9.97405 21.9312 7.84252 22.6093C6.03775 23.1899 4.85133 24.0633 4.48937 24.1804" stroke="#99CC99" stroke-width="0.502721" stroke-miterlimit="10"/>
<path d="M49.5535 24.1168C46.512 22.5312 42.9879 22.1164 39.5543 21.7749C34.1149 21.2333 28.6654 20.8186 23.2059 20.5259C20.4107 20.3746 17.3843 20.3161 15.0769 21.853C13.3374 23.0093 10.4217 23.2386 8.42082 23.8875" stroke="#99CC99" stroke-width="0.502721" stroke-miterlimit="10"/>
</g>
<defs>
<clipPath id="clip0_870_13280">
<rect width="109" height="25" fill="white" transform="matrix(-1 0 0 1 109 0)"/>
</clipPath>
</defs>
</svg>
