<svg width="177" height="110" viewBox="0 0 177 110" fill="none" xmlns="http://www.w3.org/2000/svg">
<rect width="177" height="110" rx="8" fill="#CEE8CB" fill-opacity="0.7"/>
<path d="M129 54.721C129 68.3863 117.944 79.4421 104.279 79.4421C98.5108 79.4421 93.2232 77.4507 89.0344 74.1545C94.8026 69.6223 98.4421 62.618 98.4421 54.721C98.4421 46.824 94.734 39.8198 89.0344 35.2876C93.2232 31.9914 98.5108 30 104.279 30C117.944 30 129 41.1245 129 54.721Z" fill="#F79E1B"/>
<path d="M89.0344 35.2876C89.0344 35.2876 89.0344 35.2876 89.0344 35.2876C94.734 39.8198 98.4421 46.824 98.4421 54.721C98.4421 62.618 94.8026 69.6223 89.0344 74.1545L88.9654 74.1545C83.266 69.691 79.5579 62.6181 79.5579 54.7212C79.5579 46.8242 83.2661 39.8199 88.9656 35.2877C88.9656 35.2877 88.9657 35.2878 88.9656 35.2877L89.0344 35.2876Z" fill="#FF5F00"/>
<path d="M79.5579 54.7212C79.5579 46.8242 83.2661 39.8199 88.9656 35.2877C84.7768 31.9916 79.4893 30.0001 73.721 30.0001C60.0558 30.0001 49 41.0559 49 54.7211C49 68.3864 60.0558 79.4422 73.721 79.4422C79.4893 79.4422 84.7766 77.4507 88.9654 74.1545C83.266 69.691 79.5579 62.6181 79.5579 54.7212Z" fill="#EB001B"/>
</svg>
