<svg width="183" height="116" viewBox="0 0 183 116" fill="none" xmlns="http://www.w3.org/2000/svg">
<rect x="1.5" y="1.5" width="180" height="113" rx="9.5" fill="#CEE8CB" fill-opacity="0.7"/>
<path d="M131 57.721C131 71.3863 119.944 82.4421 106.279 82.4421C100.511 82.4421 95.2232 80.4507 91.0344 77.1545C96.8026 72.6223 100.442 65.618 100.442 57.721C100.442 49.824 96.734 42.8198 91.0344 38.2876C95.2232 34.9914 100.511 33 106.279 33C119.944 33 131 44.1245 131 57.721Z" fill="#F79E1B"/>
<path d="M91.0344 38.2876C91.0344 38.2876 91.0344 38.2876 91.0344 38.2876C96.734 42.8198 100.442 49.824 100.442 57.721C100.442 65.618 96.8026 72.6223 91.0344 77.1545L90.9654 77.1545C85.266 72.691 81.5579 65.6181 81.5579 57.7212C81.5579 49.8242 85.2661 42.8199 90.9656 38.2877C90.9656 38.2877 90.9657 38.2878 90.9656 38.2877L91.0344 38.2876Z" fill="#FF5F00"/>
<path d="M81.5579 57.7212C81.5579 49.8242 85.2661 42.8199 90.9656 38.2877C86.7768 34.9916 81.4893 33.0001 75.721 33.0001C62.0558 33.0001 51 44.0559 51 57.7211C51 71.3864 62.0558 82.4422 75.721 82.4422C81.4893 82.4422 86.7766 80.4507 90.9654 77.1545C85.266 72.691 81.5579 65.6181 81.5579 57.7212Z" fill="#EB001B"/>
<rect x="1.5" y="1.5" width="180" height="113" rx="9.5" stroke="#ADD9B1" stroke-width="3"/>
</svg>
