<svg width="748" height="152" viewBox="0 0 748 152" fill="none" xmlns="http://www.w3.org/2000/svg">
<path d="M62.9875 150.232C62.9875 150.232 76.611 150.176 87.536 139.934C98.461 129.71 105.273 126.185 120.285 123.306C135.271 120.427 139.358 106.973 154.396 99.2771C169.382 91.5812 163.932 82.9442 176.194 81.9661C188.455 81.0064 213.029 69.4719 222.566 64.6736C232.128 59.8753 247.14 57.9375 260.764 51.2382C274.387 44.5021 274.387 32.0264 278.501 25.2903C282.588 18.5726 293.513 2.23975 293.513 2.23975C273.051 2.23975 259.061 21.4516 259.061 21.4516C259.061 21.4516 252.249 35.8651 248.162 41.6231C244.075 47.3811 229.063 41.6231 229.063 41.6231C229.063 41.6231 218.164 49.3004 190.865 50.2786C163.566 51.2567 160.867 57.9559 160.867 63.7324C160.867 69.5089 151.331 71.4097 129.507 76.0235C107.683 80.6373 107.683 88.7207 106.321 94.4787C104.958 100.237 89.9463 105.054 79.0475 108.892C68.1487 112.731 66.7602 114.65 63.0399 116.57C59.3197 118.489 47.661 123.287 44.9363 129.654C42.2116 136.021 43.574 135.8 28.5619 139.934C13.5499 144.068 5.37585 150.158 5.37585 150.158L63.0137 150.213" fill="#FFFFF2"/>
<path d="M62.9875 150.232C62.9875 150.232 76.611 150.176 87.536 139.934C98.461 129.71 105.273 126.185 120.285 123.306C135.271 120.427 139.358 106.973 154.396 99.2771C169.382 91.5812 163.932 82.9442 176.194 81.9661C188.455 81.0064 213.029 69.4719 222.566 64.6736C232.128 59.8753 247.14 57.9375 260.764 51.2382C274.387 44.5021 274.387 32.0264 278.501 25.2903C282.588 18.5726 293.513 2.23975 293.513 2.23975C273.051 2.23975 259.061 21.4516 259.061 21.4516C259.061 21.4516 252.249 35.8651 248.162 41.6231C244.075 47.3811 229.063 41.6231 229.063 41.6231C229.063 41.6231 218.164 49.3004 190.865 50.2786C163.566 51.2567 160.867 57.9559 160.867 63.7324C160.867 69.5089 151.331 71.4097 129.507 76.0235C107.683 80.6373 107.683 88.7207 106.321 94.4787C104.958 100.237 89.9463 105.054 79.0475 108.892C68.1487 112.731 66.7602 114.65 63.0399 116.57C59.3197 118.489 47.661 123.287 44.9363 129.654C42.2116 136.021 43.574 135.8 28.5619 139.934C13.5499 144.068 5.37585 150.158 5.37585 150.158L63.0137 150.213" fill="url(#paint0_linear_206_7396)"/>
<path d="M62.9875 150.232C62.9875 150.232 76.611 150.176 87.536 139.934C98.461 129.71 105.273 126.185 120.285 123.306C135.271 120.427 139.358 106.973 154.396 99.2771C169.382 91.5812 163.932 82.9442 176.194 81.9661C188.455 81.0064 213.029 69.4719 222.566 64.6736C232.128 59.8753 247.14 57.9375 260.764 51.2382C274.387 44.5021 274.387 32.0264 278.501 25.2903C282.588 18.5726 293.513 2.23975 293.513 2.23975C273.051 2.23975 259.061 21.4516 259.061 21.4516C259.061 21.4516 252.249 35.8651 248.162 41.6231C244.075 47.3811 229.063 41.6231 229.063 41.6231C229.063 41.6231 218.164 49.3004 190.865 50.2786C163.566 51.2567 160.867 57.9559 160.867 63.7324C160.867 69.5089 151.331 71.4097 129.507 76.0235C107.683 80.6373 107.683 88.7207 106.321 94.4787C104.958 100.237 89.9463 105.054 79.0475 108.892C68.1487 112.731 66.7602 114.65 63.0399 116.57C59.3197 118.489 47.661 123.287 44.9363 129.654C42.2116 136.021 43.574 135.8 28.5619 139.934C13.5499 144.068 5.37586 150.158 5.37586 150.158L63.0137 150.213" stroke="#8DC996" stroke-width="3" stroke-miterlimit="10"/>
<path d="M62.9874 150.232C62.9874 150.232 76.6108 150.177 87.5359 139.934C98.4609 129.71 105.273 126.185 120.285 123.306C135.271 120.427 139.358 106.973 154.396 99.2772C169.382 91.5814 163.932 82.9444 176.193 81.9662C188.455 81.0066 213.029 69.4721 222.566 64.6737C232.128 59.8754 247.14 57.9376 260.764 51.2384C274.387 44.5022 274.387 32.0265 278.501 25.2904C282.588 18.5727 293.513 2.2399 293.513 2.2399C293.513 2.2399 300.324 1.26177 313.948 2.2399C327.598 3.19957 339.885 18.5727 342.583 26.2685C345.334 33.9643 391.707 46.44 402.605 49.319C413.53 52.1981 417.591 62.7729 417.591 62.7729C417.591 62.7729 439.415 70.4687 446.227 73.3292C453.038 76.2082 466.688 84.8637 478.976 83.904C491.263 82.9444 532.16 94.4604 537.609 101.436C543.058 108.413 547.172 104.094 555.346 102.156C563.546 100.237 600.356 102.156 619.455 107.933C638.554 113.691 649.479 104.094 652.203 107.933C654.954 111.771 669.94 116.57 674.027 119.467C678.114 122.328 682.201 122.328 710.837 129.654C739.472 136.963 746.284 150.232 746.284 150.232" fill="#FFFFF2"/>
<path d="M62.9874 150.232C62.9874 150.232 76.6109 150.177 87.5359 139.934C98.4609 129.71 105.273 126.185 120.285 123.306C135.27 120.427 139.358 106.973 154.396 99.2772C169.382 91.5814 163.932 82.9444 176.193 81.9662C188.455 81.0066 213.029 69.4721 222.566 64.6737C232.128 59.8754 247.14 57.9376 260.764 51.2384C274.387 44.5022 274.387 32.0265 278.501 25.2904C282.588 18.5727 293.513 2.2399 293.513 2.2399C293.513 2.2399 300.324 1.26177 313.948 2.2399C327.598 3.19957 339.885 18.5727 342.583 26.2685C345.334 33.9643 391.707 46.44 402.605 49.319C413.53 52.1981 417.591 62.7729 417.591 62.7729C417.591 62.7729 439.415 70.4687 446.227 73.3292C453.038 76.2082 466.688 84.8637 478.976 83.904C491.263 82.9444 532.16 94.4604 537.609 101.436C543.058 108.413 547.172 104.094 555.346 102.156C563.546 100.237 600.356 102.156 619.455 107.933C638.554 113.691 649.479 104.094 652.203 107.933C654.954 111.771 669.94 116.57 674.027 119.467C678.114 122.328 682.201 122.328 710.837 129.654C739.472 136.963 746.284 150.232 746.284 150.232" stroke="#8DC996" stroke-width="3" stroke-miterlimit="10"/>
<path d="M746.284 150.232C746.284 150.232 729.255 141.373 710.182 136.52C691.083 131.647 677.852 131.647 675.101 129.728C672.377 127.809 655.112 124.598 653.278 122.032C651.47 119.467 635.148 125.871 622.389 122.032C609.656 118.175 567.79 116.902 562.341 118.175C556.891 119.467 548.613 122.346 544.971 117.695C541.329 113.045 496.791 105.367 488.617 106.013C480.443 106.659 461.606 100.883 457.073 98.9633C452.541 97.0439 429.407 91.9319 429.407 91.9319C429.407 91.9319 420.054 84.882 412.771 82.9626C405.487 81.0433 356.128 72.72 354.321 67.6079C352.513 62.4774 331.973 52.2348 322.856 51.5888C313.764 50.9429 303.809 51.5888 303.809 51.5888C303.809 51.5888 286.963 62.4774 284.238 66.9435C281.513 71.4282 270.379 79.7514 261.288 84.236C252.197 88.7206 230.792 89.994 224.4 93.2052C218.033 96.398 187.642 104.094 179.468 104.74C171.294 105.386 165.845 111.144 155.837 116.274C145.829 121.405 130.005 130.356 120.023 132.293C110.015 134.213 94.4786 136.556 87.2215 143.385C79.9382 150.213 63.0136 150.25 63.0136 150.25" stroke="#8DC996" stroke-miterlimit="10"/>
<path d="M746.284 150.232C746.284 150.232 719.063 145.802 709.501 143.366C699.964 140.93 677.538 140.93 676.176 139.971C674.813 139.011 655.269 137.405 654.352 136.132C653.435 134.859 631.69 138.051 625.323 136.132C618.957 134.213 572.034 133.567 569.31 134.213C566.585 134.859 554.114 136.298 552.28 133.973C550.446 131.647 502.293 127.809 498.206 128.122C494.119 128.436 470.12 125.557 467.841 124.597C465.562 123.638 441.144 121.073 441.144 121.073C441.144 121.073 426.499 117.548 422.857 116.588C419.216 115.628 366.87 111.476 365.953 108.911C365.036 106.345 336.243 101.215 331.685 100.901C327.152 100.569 314.053 100.901 314.053 100.901C314.053 100.901 291.259 106.345 289.897 108.578C288.535 110.83 266.266 114.982 261.707 117.234C257.174 119.467 229.325 120.113 226.155 121.718C222.985 123.324 186.752 127.163 182.664 127.476C178.577 127.809 162.229 130.688 157.225 133.253C152.221 135.818 124.686 140.303 119.708 141.263C114.704 142.222 90.4701 143.403 86.8284 146.799C83.1868 150.213 62.9349 150.232 62.9349 150.232" fill="#FFFFF2"/>
<path d="M746.284 150.232C746.284 150.232 719.063 145.802 709.501 143.366C699.964 140.93 677.538 140.93 676.176 139.971C674.813 139.011 655.269 137.405 654.352 136.132C653.435 134.859 631.69 138.051 625.323 136.132C618.957 134.213 572.034 133.567 569.31 134.213C566.585 134.859 554.114 136.298 552.28 133.973C550.446 131.647 502.293 127.809 498.206 128.122C494.119 128.436 470.12 125.557 467.841 124.597C465.562 123.638 441.144 121.073 441.144 121.073C441.144 121.073 426.499 117.548 422.857 116.588C419.216 115.628 366.87 111.476 365.953 108.911C365.036 106.345 336.243 101.215 331.685 100.901C327.152 100.569 314.053 100.901 314.053 100.901C314.053 100.901 291.259 106.345 289.897 108.578C288.535 110.83 266.266 114.982 261.707 117.234C257.175 119.467 229.325 120.113 226.155 121.718C222.985 123.324 186.752 127.163 182.665 127.476C178.577 127.809 162.229 130.688 157.225 133.253C152.221 135.818 124.686 140.303 119.708 141.263C114.704 142.222 90.4701 143.403 86.8284 146.799C83.1868 150.213 62.9349 150.232 62.9349 150.232" stroke="#8DC996" stroke-miterlimit="10"/>
<defs>
<linearGradient id="paint0_linear_206_7396" x1="293.486" y1="76.245" x2="5.34966" y2="76.245" gradientUnits="userSpaceOnUse">
<stop stop-color="#8DC996"/>
<stop offset="0.13" stop-color="#ACD8AF" stop-opacity="0.5"/>
<stop offset="0.7" stop-color="#90CA98" stop-opacity="0.98"/>
<stop offset="0.87" stop-color="#CEE8CB" stop-opacity="0.8"/>
<stop offset="0.93" stop-color="#C4E3C2" stop-opacity="0.83"/>
<stop offset="0.98" stop-color="#A8D4A7" stop-opacity="0.94"/>
<stop offset="1" stop-color="#99CC99"/>
</linearGradient>
</defs>
</svg>
