<svg width="1111" height="301" viewBox="0 0 1111 301" fill="none" xmlns="http://www.w3.org/2000/svg">
<path d="M104.5 246L71 230V260L104.5 246Z" fill="#6CBA7C"/>
<path d="M71 290V260M71 260V230L104.5 246L71 260Z" stroke="#6CBA7C" stroke-width="5"/>
<path d="M556 161V131M556 131V101L589.5 117L556 131Z" stroke="#6CBA7C" stroke-width="5"/>
<path d="M1024 66V36M1024 36V6L1057.5 22L1024 36Z" stroke="#6CBA7C" stroke-width="5"/>
<path d="M1 297.999L36.021 291.712H68.7077L130.162 280.182L189.989 272.843L283.888 279.13L347.434 266.552L425.478 238.249L461.134 228.815H488.636L557.5 160.419L721.343 195.272L806.49 169.065L848.506 151.244L881.193 125.04L963 93.4995L988.677 76.7264L1023.7 64.1484H1054.05L1082.07 74.1068L1110.09 84.0651" stroke="#6CBA7C" stroke-width="5" stroke-miterlimit="10"/>
</svg>
