<svg width="133" height="35" viewBox="0 0 133 35" fill="none" xmlns="http://www.w3.org/2000/svg">
<path d="M92.7424 6.42094C92.7424 6.42094 87.3996 13.9745 85.9009 15.9771C84.4084 17.9796 82.6965 18.4297 79.2789 19.3103C75.8613 20.2039 74.5757 24.2025 71.7978 28.312C69.0198 32.4279 66.6682 33.0215 66.6682 33.0215H1C1 33.0215 9.12073 32.878 11.2591 30.6537C13.3974 28.4294 16.3886 27.7575 17.461 28.3185C18.5333 28.8795 22.5905 25.9833 24.9421 27.0987C27.2936 28.2076 34.5615 27.6988 36.4867 26.8443C38.4118 25.9898 42.2558 24.209 48.4577 23.7655C54.6596 23.3219 55.9388 19.095 56.3652 17.7643C56.7916 16.4337 59.1432 10.2043 63.4199 9.98247C67.6966 9.76069 69.1891 5.7556 70.0482 4.42492C70.9073 3.09424 77.1029 0.869913 81.806 2.86594C86.5091 4.86848 87.362 3.97483 88.3214 3.53127C89.2809 3.08771 90.1839 3.75958 92.7486 6.42747L92.7424 6.42094Z" fill="#FFFFF2"/>
<path d="M92.7424 6.42094C92.7424 6.42094 87.3996 13.9745 85.9009 15.9771C84.4084 17.9796 82.6965 18.4297 79.2789 19.3103C75.8613 20.2039 74.5757 24.2025 71.7978 28.312C69.0198 32.4279 66.6682 33.0215 66.6682 33.0215H1C1 33.0215 9.12073 32.878 11.2591 30.6537C13.3974 28.4294 16.3886 27.7575 17.461 28.3185C18.5333 28.8795 22.5905 25.9833 24.9421 27.0987C27.2936 28.2076 34.5615 27.6988 36.4867 26.8443C38.4118 25.9898 42.2558 24.209 48.4577 23.7655C54.6596 23.3219 55.9388 19.095 56.3652 17.7643C56.7916 16.4337 59.1432 10.2043 63.4199 9.98247C67.6966 9.76069 69.1891 5.7556 70.0482 4.42492C70.9073 3.09424 77.1029 0.869913 81.806 2.86594C86.5091 4.86848 87.362 3.97483 88.3214 3.53127C89.2809 3.08771 90.1839 3.75958 92.7486 6.42747L92.7424 6.42094Z" fill="url(#paint0_linear_624_21139)" fill-opacity="0.3"/>
<path d="M92.7424 6.42094C92.7424 6.42094 87.3996 13.9745 85.9009 15.9771C84.4084 17.9796 82.6965 18.4297 79.2789 19.3103C75.8613 20.2039 74.5757 24.2025 71.7978 28.312C69.0198 32.4279 66.6682 33.0215 66.6682 33.0215H1C1 33.0215 9.12073 32.878 11.2591 30.6537C13.3974 28.4294 16.3886 27.7575 17.461 28.3185C18.5333 28.8795 22.5905 25.9833 24.9421 27.0987C27.2936 28.2076 34.5615 27.6988 36.4867 26.8443C38.4118 25.9898 42.2558 24.209 48.4577 23.7655C54.6596 23.3219 55.9388 19.095 56.3652 17.7643C56.7916 16.4337 59.1432 10.2043 63.4199 9.98247C67.6966 9.76069 69.1891 5.7556 70.0482 4.42492C70.9073 3.09424 77.1029 0.869913 81.806 2.86594C86.5091 4.86848 87.362 3.97483 88.3214 3.53127C89.2809 3.08771 90.1839 3.75958 92.7486 6.42747L92.7424 6.42094Z" stroke="#8DC996" stroke-opacity="0.3" stroke-width="3" stroke-miterlimit="10"/>
<path d="M136.13 33.0215C136.13 33.0215 134.205 31.7691 130.788 30.4319C127.37 29.0947 126.511 24.4243 121.632 23.909C116.753 23.3936 116.465 19.3038 113.468 19.7017C110.483 20.093 110.263 17.3077 109.191 16.4206C108.119 15.5335 103.208 14.8355 103.208 14.8355C103.208 14.8355 97.2198 12.1937 95.2947 9.0823C93.3695 5.97085 92.7299 6.41441 92.7299 6.41441C92.7299 6.41441 87.3871 13.968 85.8884 15.9705C84.396 17.9731 82.684 18.4232 79.2664 19.3038C75.8488 20.1974 74.5633 24.196 71.7853 28.3054C69.0073 32.4214 66.6558 33.015 66.6558 33.015" fill="#FFFFF2"/>
<path d="M136.13 33.0215C136.13 33.0215 134.205 31.7691 130.788 30.4319C127.37 29.0947 126.511 24.4243 121.632 23.909C116.753 23.3936 116.465 19.3038 113.468 19.7017C110.483 20.093 110.263 17.3077 109.191 16.4206C108.119 15.5335 103.208 14.8355 103.208 14.8355C103.208 14.8355 97.2198 12.1937 95.2947 9.0823C93.3695 5.97085 92.7299 6.41441 92.7299 6.41441C92.7299 6.41441 87.3871 13.968 85.8884 15.9705C84.396 17.9731 82.684 18.4232 79.2664 19.3038C75.8488 20.1974 74.5633 24.196 71.7853 28.3054C69.0073 32.4214 66.6558 33.015 66.6558 33.015" stroke="#8DC996" stroke-opacity="0.3" stroke-width="3" stroke-miterlimit="10"/>
<path d="M66.6619 33.0215C66.6619 33.0215 70.0168 32.6301 71.873 29.884C73.7229 27.1443 77.6045 24.4765 79.8808 23.8829C82.1571 23.2958 85.2424 22.9957 86.2394 21.6585C87.2365 20.3213 93.7644 15.2856 93.7644 15.2856C93.7644 15.2856 95.144 14.9856 96.4296 17.0599C97.7151 19.1342 104.224 20.8954 104.224 20.8954C104.224 20.8954 109.103 21.3585 109.812 21.9521C110.52 22.5457 112.151 24.3982 114.145 24.1438C116.139 23.8763 118.754 26.6029 122.002 26.9487C125.25 27.2944 128.762 30.4058 131.038 31.2929C133.315 32.1801 136.124 33.015 136.124 33.015" stroke="#8DC996" stroke-opacity="0.3" stroke-miterlimit="10"/>
<path d="M66.6619 33.0214C66.6619 33.0214 71.0264 32.8257 71.9545 31.4494C72.8763 30.0796 79.3541 28.7424 80.4954 28.4488C81.6367 28.1553 86.0889 28.0053 86.5843 27.3399C87.086 26.6746 94.7866 24.1567 94.7866 24.1567C94.7866 24.1567 96.9124 24.0067 97.5583 25.0438C98.2042 26.081 105.24 26.9616 105.24 26.9616C105.24 26.9616 110.081 27.1964 110.439 27.49C110.796 27.7835 113.831 28.7163 114.828 28.5858C115.825 28.4553 120.76 29.8186 122.385 29.9882C124.009 30.1578 130.167 31.7168 131.308 32.1604C132.449 32.6039 136.137 33.0214 136.137 33.0214" stroke="#8DC996" stroke-opacity="0.3" stroke-miterlimit="10"/>
<defs>
<linearGradient id="paint0_linear_624_21139" x1="0.993729" y1="17.5426" x2="92.7424" y2="17.5426" gradientUnits="userSpaceOnUse">
<stop stop-color="#8DC996"/>
<stop offset="0.13" stop-color="#ACD8AF" stop-opacity="0.5"/>
<stop offset="0.7" stop-color="#90CA98" stop-opacity="0.98"/>
<stop offset="0.87" stop-color="#CEE8CB" stop-opacity="0.8"/>
<stop offset="0.93" stop-color="#C4E3C2" stop-opacity="0.83"/>
<stop offset="0.98" stop-color="#A8D4A7" stop-opacity="0.94"/>
<stop offset="1" stop-color="#99CC99"/>
</linearGradient>
</defs>
</svg>
