<svg width="178" height="84" viewBox="0 0 178 84" fill="none" xmlns="http://www.w3.org/2000/svg">
<path d="M83.3705 5.86621C83.1197 6.0619 82.8438 6.57721 82.5679 7.26212L83.3705 5.86621Z" fill="url(#paint0_linear_624_21126)"/>
<path d="M82.5679 7.26221C81.7402 9.26475 80.8936 12.7154 80.7117 13.7395C80.0972 17.151 74.165 20.132 70.2708 23.961C66.3829 27.7899 68.2265 31.6254 68.2265 33.9672C68.2265 36.3089 63.724 38.6506 61.6797 40.9924C59.6292 43.3341 59.6292 47.5871 57.5849 48.8656C55.5406 50.1441 54.926 51.6313 54.926 53.7643C54.926 55.8973 53.49 58.6565 52.6748 59.087C51.8533 59.511 52.6748 62.0615 52.6748 62.0615C52.6748 62.0615 51.6527 63.5553 48.1724 66.745C44.692 69.9412 42.6478 65.2578 39.575 68.2387C36.5086 71.2197 28.9334 68.878 28.5258 70.1565C28.1182 71.4285 26.8891 72.283 23.4088 74.84C22.0292 75.851 21.2328 77.1817 20.7688 78.4276C19.9536 80.6258 17.8591 82.0217 15.5954 82.0217H-62C-62 82.0217 -47.0315 81.4738 -42.5729 79.5234C-38.1206 77.5666 -25.2153 74.8856 -22.87 74.6378C-20.5247 74.3964 -11.3755 73.1766 -7.85131 70.2478C-4.33337 67.319 -0.81543 69.7586 0.125195 65.8579C1.05955 61.9506 0.827526 61.9506 4.81578 58.2912C8.80403 54.6319 21.4711 43.4059 27.1023 44.1364C32.7336 44.867 36.2515 42.9166 39.3054 40.9598C42.353 39.0094 52.4428 36.8112 57.3654 30.7122C62.2943 24.6133 62.9966 25.1025 63.2349 21.4366C63.4669 17.7772 68.1575 17.288 70.0388 16.5574C71.7632 15.8855 79.1691 12.4023 82.5679 7.26221Z" fill="url(#paint1_linear_624_21126)" stroke="#8DC996" stroke-width="3" stroke-miterlimit="10" stroke-linejoin="round"/>
<path d="M83.3705 5.86621C83.1385 6.34239 82.8689 6.81204 82.5679 7.26212L83.3705 5.86621Z" fill="url(#paint2_linear_624_21126)"/>
<path d="M176 79.9917C175.179 76.1562 168.704 71.6287 168.911 70.572C169.118 69.5087 168.704 67.167 167.688 66.7365C166.666 66.3125 166.459 63.5468 165.638 62.6922C164.816 61.8377 161.543 59.072 161.342 58.2175C161.135 57.363 158.069 49.6985 156.432 49.0658C154.795 48.4331 152.13 45.6608 151.315 43.5344C150.494 41.4013 148.857 38.6421 146.405 37.3571C143.947 36.0851 139.858 35.0154 139.244 33.0976C138.629 31.1864 135.149 29.9079 135.149 29.9079C135.149 29.9079 129.21 29.4839 129.01 25.2244C128.803 20.9649 125.736 17.7752 125.116 16.0727C124.501 14.3702 121.435 10.9653 121.435 10.9653C121.435 10.9653 113.245 10.5347 110.793 8.617C108.335 6.70578 102.409 6.06001 101.38 5.00329C100.358 3.94005 100.559 2.66155 98.5146 3.08554C96.4704 3.51606 94.4261 3.51606 90.3312 2.23103C86.2364 0.95906 85.0073 4.57277 83.3706 5.85127C82.3923 6.60793 80.9563 12.3481 80.7118 13.7245C80.0972 17.1295 74.165 20.1104 70.2771 23.9394C66.3892 27.7684 68.2328 31.6039 68.2328 33.9456C68.2328 36.2874 63.7303 38.6291 61.686 40.9708C59.6417 43.3126 59.6417 47.5721 57.5912 48.844C55.5469 50.1225 54.9323 51.6098 54.9323 53.7428C54.9323 55.8758 53.5026 58.6415 52.6811 59.0655C51.8596 59.4895 52.6811 62.0465 52.6811 62.0465C52.6811 62.0465 51.659 63.5337 48.1786 66.73C44.6983 69.9262 42.654 65.2427 39.5813 68.2172C36.5086 71.1917 30.4572 69.6262 28.5321 70.1349C27.2779 70.4676 25.6726 71.7331 23.4151 74.8184C20.5493 78.7322 14.9495 82.0002 14.9495 82.0002" fill="#FFFFF2"/>
<path d="M176 79.9917C175.179 76.1562 168.704 71.6287 168.911 70.572C169.118 69.5087 168.704 67.167 167.688 66.7365C166.666 66.3125 166.459 63.5468 165.638 62.6922C164.816 61.8377 161.543 59.072 161.342 58.2175C161.135 57.363 158.069 49.6985 156.432 49.0658C154.795 48.4331 152.13 45.6608 151.315 43.5344C150.494 41.4013 148.857 38.6421 146.405 37.3571C143.947 36.0851 139.858 35.0154 139.244 33.0976C138.629 31.1864 135.149 29.9079 135.149 29.9079C135.149 29.9079 129.21 29.4839 129.01 25.2244C128.803 20.9649 125.736 17.7752 125.116 16.0727C124.501 14.3702 121.435 10.9653 121.435 10.9653C121.435 10.9653 113.245 10.5347 110.793 8.617C108.335 6.70578 102.409 6.06001 101.38 5.00329C100.358 3.94005 100.559 2.66155 98.5146 3.08554C96.4704 3.51606 94.4261 3.51606 90.3312 2.23103C86.2364 0.95906 85.0073 4.57277 83.3706 5.85127C82.3923 6.60793 80.9563 12.3481 80.7118 13.7245C80.0972 17.1295 74.165 20.1104 70.2771 23.9394C66.3892 27.7684 68.2328 31.6039 68.2328 33.9456C68.2328 36.2874 63.7303 38.6291 61.686 40.9708C59.6417 43.3126 59.6417 47.5721 57.5912 48.844C55.5469 50.1225 54.9323 51.6098 54.9323 53.7428C54.9323 55.8758 53.5026 58.6415 52.6811 59.0655C51.8596 59.4895 52.6811 62.0465 52.6811 62.0465C52.6811 62.0465 51.659 63.5337 48.1786 66.73C44.6983 69.9262 42.654 65.2427 39.5813 68.2172C36.5086 71.1917 30.4572 69.6262 28.5321 70.1349C27.2779 70.4676 25.6726 71.7331 23.4151 74.8184C20.5493 78.7322 14.9495 82.0002 14.9495 82.0002" stroke="#8DC996" stroke-width="3" stroke-linecap="round" stroke-linejoin="round"/>
<path d="M14.9431 82.0217C14.9431 82.0217 20.9569 79.5691 23.1077 76.6338C24.8009 74.3181 27.1462 73.3723 28.0868 73.1244C29.5291 72.7461 35.9692 73.9202 38.2706 71.6894C40.572 69.4585 43.6322 72.9679 46.2409 70.574C48.8495 68.18 50.6681 67.0646 50.6681 67.0646C50.6681 67.0646 50.5489 65.1469 51.1635 64.8272C51.778 64.5076 53.8035 62.4333 53.8035 60.8352C53.8035 59.2371 55.2019 58.1217 56.7383 57.1628C58.2746 56.2039 59.7169 53.0142 61.2533 51.253C62.7896 49.4918 67.7499 47.7436 67.7499 45.9824C67.7499 44.2212 68.0885 41.3511 71.0044 38.4811C73.9204 35.6044 80.7807 33.3736 81.2384 30.8166C81.4266 29.786 83.8408 25.4808 84.5745 24.9068C85.8036 23.9479 88.1113 21.2344 91.184 22.1932C94.2567 23.1521 97.1601 23.1521 98.6964 22.8325C100.233 22.5129 100.703 23.4717 101.468 24.2675C102.239 25.0633 108.354 25.546 110.197 26.9811C112.041 28.4161 120.005 28.7423 120.005 28.7423C120.005 28.7423 123.328 31.2993 123.786 32.5713C124.25 33.8498 128.163 36.2437 128.32 39.4334C128.47 42.6296 134.296 42.9427 134.296 42.9427C134.296 42.9427 137.776 43.9016 138.234 45.3367C138.692 46.7717 143.163 47.574 145.007 48.5329C146.85 49.4918 149.384 51.5661 149.992 53.1642C150.606 54.7558 153.855 56.8366 155.084 57.3128C156.313 57.789 160.314 63.5357 160.464 64.1749C160.615 64.8142 164.089 66.8885 164.703 67.5277C165.318 68.167 166.215 70.2413 166.986 70.5609C167.757 70.8805 168.742 72.6352 168.585 73.4375C168.428 74.2333 175.385 78.1234 176 81" stroke="#8DC996" stroke-linecap="round" stroke-linejoin="round"/>
<path d="M14.9431 82.0217C14.9431 82.0217 21.3707 80.391 22.8067 78.4276C23.9355 76.8882 27.0207 76.2489 27.6478 76.0859C28.6073 75.8315 35.4299 76.6207 36.9663 75.127C38.5027 73.6332 42.5787 75.9815 44.3157 74.3834C46.0527 72.7853 48.6677 72.0416 48.6677 72.0416C48.6677 72.0416 49.2446 70.7631 49.6585 70.5544C50.0724 70.3457 52.681 68.9563 52.681 67.893C52.681 66.8298 54.8696 66.0862 55.8917 65.4469C56.9138 64.8077 59.8047 62.6812 60.8268 61.5071C61.849 60.3329 67.2795 59.1653 67.2795 57.9977C67.2795 56.8301 69.7942 54.9124 71.7381 52.9946C73.6821 51.0769 81.4642 49.5896 81.7715 47.8871C81.8969 47.2022 85.2894 44.3321 85.7785 43.9473C86.6 43.308 89.9862 41.5012 92.0305 42.1404C94.0748 42.7797 97.8499 42.7797 98.872 42.5644C99.8942 42.3557 101.035 42.9884 101.55 43.5233C102.064 44.0517 108.372 44.3778 109.601 45.3302C110.831 46.289 118.569 46.5043 118.569 46.5043C118.569 46.5043 122.143 48.2068 122.45 49.0613C122.758 49.9158 127.523 51.5074 127.624 53.6404C127.724 55.7669 133.443 55.9821 133.443 55.9821C133.443 55.9821 136.923 56.6214 137.224 57.5803C137.532 58.5391 142.379 59.074 143.608 59.7067C144.837 60.346 148.261 61.7289 148.675 62.7921C149.083 63.8553 152.927 65.2382 153.742 65.5578C154.557 65.8774 159.486 69.7064 159.586 70.1369C159.687 70.5674 163.361 71.9503 163.769 72.3743C164.177 72.7983 165.769 74.1812 166.277 74.3964C166.785 74.6117 168.359 75.7793 168.259 76.3142C168.159 76.8425 175.586 79.0825 176 81.0002" stroke="#8DC996" stroke-linecap="round" stroke-linejoin="round"/>
<path d="M14.9431 82.0216C14.9431 82.0216 21.7846 81.2062 22.4995 80.2278C23.0639 79.4581 26.8891 79.1385 27.2026 79.0602C27.6855 78.9363 34.8907 79.3276 35.6557 78.584C36.4207 77.8404 41.5127 79.008 42.3843 78.2122C43.256 77.4164 46.6548 77.0446 46.6548 77.0446C46.6548 77.0446 47.934 76.4054 48.1347 76.301C48.3353 76.1966 51.546 75.5052 51.546 74.9703C51.546 74.4354 54.5184 74.0636 55.0326 73.744C55.5468 73.4244 59.8737 72.3611 60.3879 71.7741C60.9021 71.187 66.7904 70.6065 66.7904 70.0194C66.7904 69.4323 71.481 68.4735 72.453 67.5211C73.425 66.5687 82.1289 65.8186 82.2857 64.9641C82.3484 64.6184 86.7254 63.1833 86.97 62.9942C87.3776 62.6745 91.8487 61.7679 92.8708 62.0875C93.893 62.4071 98.5334 62.4071 99.0413 62.3027C99.5555 62.1984 101.368 62.518 101.625 62.7789C101.882 63.0464 108.379 63.2029 108.993 63.6856C109.608 64.1618 117.12 64.2727 117.12 64.2727C117.12 64.2727 120.952 65.1272 121.102 65.5512C121.259 65.9752 126.865 66.7775 126.922 67.8407C126.972 68.904 132.584 69.0083 132.584 69.0083C132.584 69.0083 136.058 69.328 136.215 69.8041C136.365 70.2803 141.595 70.5477 142.21 70.8674C142.824 71.187 147.145 71.8784 147.352 72.4133C147.559 72.9417 151.986 73.6396 152.394 73.7962C152.801 73.9527 158.658 75.8705 158.708 76.0857C158.759 76.301 162.634 76.9924 162.835 77.2012C163.035 77.4099 165.318 78.1078 165.575 78.2122C165.832 78.3166 167.983 78.9036 167.933 79.1711C167.883 79.4385 176.293 80.5409 176.5 81.4998" stroke="#8DC996" stroke-linecap="round" stroke-linejoin="round"/>
<defs>
<linearGradient id="paint0_linear_624_21126" x1="82.5679" y1="6.56417" x2="83.3705" y2="6.56417" gradientUnits="userSpaceOnUse">
<stop stop-color="#8DC996"/>
<stop offset="0.13" stop-color="#ACD8AF" stop-opacity="0.5"/>
<stop offset="0.7" stop-color="#90CA98" stop-opacity="0.98"/>
<stop offset="0.87" stop-color="#CEE8CB" stop-opacity="0.8"/>
<stop offset="0.93" stop-color="#C4E3C2" stop-opacity="0.83"/>
<stop offset="0.98" stop-color="#A8D4A7" stop-opacity="0.94"/>
<stop offset="1" stop-color="#99CC99"/>
</linearGradient>
<linearGradient id="paint1_linear_624_21126" x1="-62" y1="44.6452" x2="82.5679" y2="44.6452" gradientUnits="userSpaceOnUse">
<stop stop-color="#8DC996"/>
<stop offset="0.13" stop-color="#ACD8AF" stop-opacity="0.5"/>
<stop offset="0.7" stop-color="#90CA98" stop-opacity="0.98"/>
<stop offset="0.87" stop-color="#CEE8CB" stop-opacity="0.8"/>
<stop offset="0.93" stop-color="#C4E3C2" stop-opacity="0.83"/>
<stop offset="0.98" stop-color="#A8D4A7" stop-opacity="0.94"/>
<stop offset="1" stop-color="#99CC99"/>
</linearGradient>
<linearGradient id="paint2_linear_624_21126" x1="82.5679" y1="6.56417" x2="83.3705" y2="6.56417" gradientUnits="userSpaceOnUse">
<stop stop-color="#8DC996"/>
<stop offset="0.13" stop-color="#ACD8AF" stop-opacity="0.5"/>
<stop offset="0.7" stop-color="#90CA98" stop-opacity="0.98"/>
<stop offset="0.87" stop-color="#CEE8CB" stop-opacity="0.8"/>
<stop offset="0.93" stop-color="#C4E3C2" stop-opacity="0.83"/>
<stop offset="0.98" stop-color="#A8D4A7" stop-opacity="0.94"/>
<stop offset="1" stop-color="#99CC99"/>
</linearGradient>
</defs>
</svg>
