<svg width="184" height="56" viewBox="0 0 184 56" fill="none" xmlns="http://www.w3.org/2000/svg">
<path d="M18.1601 54.0216C18.1601 54.0216 21.4209 54.0021 24.0358 50.3818C26.6508 46.7681 28.2812 45.5222 31.8744 44.5047C35.4613 43.4871 36.4396 38.7318 40.039 36.0118C43.6259 33.2917 42.3216 30.239 45.2564 29.8933C48.1911 29.5541 54.0731 25.4772 56.3557 23.7812C58.6446 22.0853 62.2378 21.4004 65.4986 19.0325C68.7594 16.6517 68.7595 12.2422 69.744 9.86127C70.7222 7.48692 73.3372 1.71411 73.3372 1.71411C68.4396 1.71411 65.091 8.5045 65.091 8.5045C65.091 8.5045 63.4606 13.5989 62.4823 15.6341C61.5041 17.6692 57.9109 15.6341 57.9109 15.6341C57.9109 15.6341 55.3022 18.3476 48.768 18.6933C42.2338 19.0391 41.5879 21.4069 41.5879 23.4486C41.5879 25.4903 39.3053 26.1621 34.0817 27.7929C28.8581 29.4236 28.8581 32.2807 28.532 34.3158C28.2059 36.351 24.6127 38.0535 22.0041 39.4102C19.3954 40.767 19.0631 41.4454 18.1726 42.1238C17.2821 42.8022 14.4916 44.4981 13.8394 46.7486C13.1873 48.999 13.5134 48.9207 9.92016 50.3818C6.32697 51.843 4.37048 53.9955 4.37048 53.9955L18.1663 54.0151" fill="#FFFFF2"/>
<path d="M18.1601 54.0216C18.1601 54.0216 21.4209 54.0021 24.0358 50.3818C26.6508 46.7681 28.2812 45.5222 31.8744 44.5047C35.4613 43.4871 36.4396 38.7318 40.039 36.0118C43.6259 33.2917 42.3216 30.239 45.2564 29.8933C48.1911 29.5541 54.0731 25.4772 56.3557 23.7812C58.6446 22.0853 62.2378 21.4004 65.4986 19.0325C68.7594 16.6517 68.7595 12.2422 69.744 9.86127C70.7222 7.48692 73.3372 1.71411 73.3372 1.71411C68.4396 1.71411 65.091 8.5045 65.091 8.5045C65.091 8.5045 63.4606 13.5989 62.4823 15.6341C61.5041 17.6692 57.9109 15.6341 57.9109 15.6341C57.9109 15.6341 55.3022 18.3476 48.768 18.6933C42.2338 19.0391 41.5879 21.4069 41.5879 23.4486C41.5879 25.4903 39.3053 26.1621 34.0817 27.7929C28.8581 29.4236 28.8581 32.2807 28.532 34.3158C28.2059 36.351 24.6127 38.0535 22.0041 39.4102C19.3954 40.767 19.0631 41.4454 18.1726 42.1238C17.2821 42.8022 14.4916 44.4981 13.8394 46.7486C13.1873 48.999 13.5134 48.9207 9.92016 50.3818C6.32697 51.843 4.37048 53.9955 4.37048 53.9955L18.1663 54.0151" fill="url(#paint0_linear_624_21134)" fill-opacity="0.3"/>
<path d="M18.1601 54.0216C18.1601 54.0216 21.4209 54.0021 24.0358 50.3818C26.6508 46.7681 28.2812 45.5222 31.8744 44.5047C35.4613 43.4871 36.4396 38.7318 40.039 36.0118C43.6259 33.2917 42.3216 30.239 45.2564 29.8933C48.1911 29.5541 54.0731 25.4772 56.3557 23.7812C58.6446 22.0853 62.2378 21.4004 65.4986 19.0325C68.7594 16.6517 68.7595 12.2422 69.744 9.86127C70.7222 7.48692 73.3372 1.71411 73.3372 1.71411C68.4396 1.71411 65.091 8.5045 65.091 8.5045C65.091 8.5045 63.4606 13.5989 62.4823 15.6341C61.5041 17.6692 57.9109 15.6341 57.9109 15.6341C57.9109 15.6341 55.3022 18.3476 48.768 18.6934C42.2338 19.0391 41.5879 21.4069 41.5879 23.4486C41.5879 25.4903 39.3053 26.1621 34.0817 27.7929C28.8581 29.4236 28.8581 32.2807 28.532 34.3158C28.2059 36.351 24.6127 38.0535 22.0041 39.4102C19.3954 40.767 19.0631 41.4454 18.1726 42.1238C17.2821 42.8022 14.4916 44.4981 13.8394 46.7485C13.1873 48.999 13.5134 48.9207 9.92016 50.3818C6.32697 51.843 4.37048 53.9955 4.37048 53.9955L18.1663 54.0151" stroke="#8DC996" stroke-opacity="0.3" stroke-width="3" stroke-miterlimit="10"/>
<path d="M18 54.0002C18 54.0002 21.2698 53.9808 23.892 50.3924C26.5141 46.8105 28.149 45.5756 31.7521 44.5669C35.3489 43.5583 36.3298 38.8449 39.9392 36.1487C43.536 33.4525 42.2281 30.4266 45.1709 30.084C48.1137 29.7478 54.0119 25.7067 56.3008 24.0257C58.596 22.3446 62.1991 21.6657 65.4689 19.3187C68.7387 16.9588 68.7387 12.588 69.7259 10.2281C70.7069 7.87461 73.329 2.15255 73.329 2.15255C73.329 2.15255 74.9639 1.80987 78.2337 2.15255C81.5098 2.48876 84.459 7.87461 85.1066 10.5708C85.7669 13.2669 96.8968 17.6377 99.5127 18.6463C102.135 19.6549 103.109 23.3597 103.109 23.3597C103.109 23.3597 108.347 26.0559 109.982 27.0581C111.617 28.0667 114.893 31.0991 117.842 30.7629C120.792 30.4266 130.607 34.4612 131.915 36.9052C133.223 39.3492 134.21 37.8362 136.172 37.1573C138.14 36.4849 146.975 37.1573 151.559 39.1811C156.143 41.1983 158.765 37.8362 159.419 39.1811C160.08 40.5259 163.676 42.207 164.657 43.2221C165.638 44.2242 166.619 44.2242 173.492 46.7911C180.365 49.3515 182 54.0002 182 54.0002" fill="#FFFFF2"/>
<path d="M18 54.0002C18 54.0002 21.2698 53.9808 23.892 50.3924C26.5141 46.8105 28.149 45.5756 31.7521 44.5669C35.3489 43.5583 36.3298 38.8449 39.9392 36.1487C43.536 33.4525 42.2281 30.4266 45.1709 30.084C48.1137 29.7478 54.012 25.7067 56.3008 24.0257C58.596 22.3446 62.1991 21.6657 65.4689 19.3187C68.7387 16.9588 68.7387 12.588 69.7259 10.2281C70.7069 7.87461 73.329 2.15255 73.329 2.15255C73.329 2.15255 74.9639 1.80987 78.2337 2.15255C81.5098 2.48876 84.459 7.87461 85.1066 10.5708C85.7669 13.2669 96.8968 17.6377 99.5127 18.6463C102.135 19.6549 103.109 23.3597 103.109 23.3597C103.109 23.3597 108.347 26.0559 109.982 27.0581C111.617 28.0667 114.893 31.0991 117.842 30.7629C120.792 30.4266 130.607 34.4612 131.915 36.9052C133.223 39.3492 134.21 37.8362 136.172 37.1573C138.14 36.4849 146.975 37.1573 151.559 39.1811C156.143 41.1983 158.765 37.8362 159.419 39.1811C160.08 40.5259 163.676 42.207 164.657 43.2221C165.638 44.2242 166.619 44.2242 173.492 46.7911C180.365 49.3515 182 54.0002 182 54.0002" stroke="#8DC996" stroke-opacity="0.3" stroke-width="3" stroke-miterlimit="10"/>
<path d="M181.71 54.0216C181.71 54.0216 177.634 50.8905 173.069 49.175C168.497 47.453 165.33 47.453 164.672 46.7746C164.02 46.0962 159.887 44.9612 159.448 44.0545C159.016 43.1478 155.109 45.4113 152.055 44.0545C149.007 42.6912 138.987 42.2411 137.682 42.6912C136.378 43.1478 134.396 44.1654 133.525 42.5216C132.653 40.8778 121.993 38.1643 120.036 38.3926C118.08 38.6209 113.571 36.5792 112.486 35.9008C111.401 35.2224 105.864 33.4156 105.864 33.4156C105.864 33.4156 103.625 30.9238 101.882 30.2454C100.139 29.567 88.3244 26.6252 87.8917 24.8183C87.459 23.0049 82.5427 19.3847 80.3604 19.1564C78.1844 18.9281 75.8015 19.1564 75.8015 19.1564C75.8015 19.1564 71.7694 23.0049 71.1172 24.5835C70.4651 26.1686 67.7999 29.1104 65.624 30.6955C63.448 32.2806 58.3247 32.7307 56.7946 33.8656C55.2708 34.9941 47.9966 37.7142 46.0401 37.9425C44.0836 38.1708 42.7793 40.206 40.3838 42.0193C37.9884 43.8327 34.2008 46.9963 31.8116 47.6813C29.4161 48.3596 25.6975 49.1881 23.9605 51.6015C22.2172 54.015 18.1663 54.0281 18.1663 54.0281" stroke="#8DC996" stroke-opacity="0.3" stroke-miterlimit="10"/>
<path d="M181.71 54.0217C181.71 54.0217 175.194 52.4562 172.905 51.5952C170.623 50.7341 165.255 50.7342 164.929 50.395C164.603 50.0558 159.925 49.4883 159.705 49.0382C159.486 48.5881 154.281 49.7166 152.757 49.0382C151.233 48.3598 140.002 48.1315 139.35 48.3598C138.698 48.5881 135.713 49.0969 135.274 48.275C134.835 47.4531 123.309 46.0963 122.331 46.2072C121.353 46.3181 115.609 45.3005 115.063 44.9613C114.518 44.6221 108.673 43.7155 108.673 43.7155C108.673 43.7155 105.168 42.4696 104.296 42.1304C103.425 41.7912 90.8954 40.3235 90.676 39.4168C90.4565 38.5101 83.5648 36.6968 82.4737 36.5859C81.3888 36.4685 78.2534 36.5859 78.2534 36.5859C78.2534 36.5859 72.7978 38.5101 72.4717 39.2994C72.1456 40.0952 66.8154 41.5629 65.7243 42.3587C64.6394 43.148 57.9735 43.3763 57.2148 43.9438C56.456 44.5113 47.7834 45.868 46.8052 45.9789C45.8269 46.0963 41.9139 47.1139 40.7162 48.0206C39.5184 48.9273 32.9278 50.5124 31.7363 50.8516C30.5386 51.1908 24.7381 51.6082 23.8664 52.8084C22.9948 54.0152 18.1474 54.0217 18.1474 54.0217" stroke="#8DC996" stroke-opacity="0.3" stroke-miterlimit="10"/>
<defs>
<linearGradient id="paint0_linear_624_21134" x1="73.3309" y1="27.8711" x2="4.36421" y2="27.8711" gradientUnits="userSpaceOnUse">
<stop stop-color="#8DC996"/>
<stop offset="0.13" stop-color="#ACD8AF" stop-opacity="0.5"/>
<stop offset="0.7" stop-color="#90CA98" stop-opacity="0.98"/>
<stop offset="0.87" stop-color="#CEE8CB" stop-opacity="0.8"/>
<stop offset="0.93" stop-color="#C4E3C2" stop-opacity="0.83"/>
<stop offset="0.98" stop-color="#A8D4A7" stop-opacity="0.94"/>
<stop offset="1" stop-color="#99CC99"/>
</linearGradient>
</defs>
</svg>
