<svg width="40" height="40" viewBox="0 0 40 40" fill="none" xmlns="http://www.w3.org/2000/svg">
<circle cx="20" cy="20" r="20" fill="#CEE8CB"/>
<path d="M27.5062 25.795H25.1069V29.8815H20.9899V25.795H12.4834V22.8954L21.2217 10.1641H25.1069V22.5583H27.5062V25.795ZM20.9899 22.5583V19.2136C20.9899 18.8989 20.9945 18.5258 21.0036 18.0942C21.0218 17.6626 21.0399 17.231 21.0581 16.7995C21.0763 16.3679 21.0945 15.9858 21.1126 15.6531C21.1399 15.3114 21.1581 15.0732 21.1672 14.9383H21.0581C20.8854 15.307 20.7037 15.6666 20.5128 16.0172C20.322 16.3589 20.0993 16.7186 19.8448 17.0962L16.1914 22.5583H20.9899Z" fill="#FFFFF2"/>
</svg>
