<svg width="296" height="32" viewBox="0 0 296 32" fill="none" xmlns="http://www.w3.org/2000/svg">
<line x1="26" y1="15.5" x2="272" y2="15.5" stroke="#CEE8CB"/>
<circle cx="16" cy="16" r="16" fill="#CEE8CB"/>
<path d="M17.7293 23.7273H14.4334V14.7034C14.4334 14.4545 14.4369 14.1487 14.444 13.7861C14.4511 13.4163 14.4618 13.0394 14.476 12.6554C14.4903 12.2643 14.5045 11.9123 14.5187 11.5994C14.4405 11.6919 14.2805 11.8519 14.0387 12.0794C13.804 12.2999 13.5836 12.499 13.3774 12.6767L11.5854 14.1167L9.99609 12.1328L15.02 8.13281H17.7293V23.7273Z" fill="#FFFFF2"/>
<circle cx="104" cy="16" r="16" fill="#CEE8CB"/>
<path d="M109.408 23.8697H98.6313V21.5882L102.501 17.6513C103.282 16.8449 103.907 16.1728 104.378 15.6352C104.856 15.0904 105.201 14.5952 105.412 14.1495C105.63 13.7039 105.739 13.2263 105.739 12.717C105.739 12.1015 105.566 11.6417 105.222 11.3375C104.884 11.0262 104.431 10.8706 103.862 10.8706C103.264 10.8706 102.684 11.0085 102.122 11.2844C101.559 11.5603 100.972 11.953 100.361 12.4623L98.5891 10.3506C99.032 9.9686 99.4995 9.60781 99.9916 9.26824C100.491 8.92868 101.067 8.65631 101.721 8.45116C102.382 8.23893 103.173 8.13281 104.094 8.13281C105.106 8.13281 105.974 8.31675 106.698 8.68461C107.429 9.05248 107.992 9.55476 108.385 10.1914C108.779 10.8211 108.976 11.5356 108.976 12.335C108.976 13.191 108.807 13.9727 108.47 14.6801C108.132 15.3876 107.64 16.0879 106.993 16.7812C106.354 17.4745 105.58 18.242 104.674 19.0839L102.691 20.9621V21.1107H109.408V23.8697Z" fill="#FFFFF2"/>
<circle cx="192" cy="16" r="16" fill="#CEE8CB"/>
<path d="M196.862 11.7679C196.862 12.4712 196.715 13.0806 196.42 13.5959C196.126 14.1112 195.727 14.5325 195.223 14.8598C194.726 15.1871 194.166 15.4274 193.543 15.5806V15.6432C194.775 15.7964 195.71 16.1725 196.347 16.7714C196.991 17.3703 197.313 18.1711 197.313 19.1739C197.313 20.0652 197.093 20.8626 196.652 21.5659C196.217 22.2693 195.545 22.8229 194.635 23.2268C193.725 23.6307 192.552 23.8326 191.117 23.8326C190.27 23.8326 189.479 23.763 188.744 23.6237C188.016 23.4914 187.33 23.286 186.686 23.0074V20.2602C187.344 20.5945 188.033 20.8487 188.754 21.0228C189.475 21.1899 190.148 21.2734 190.771 21.2734C191.933 21.2734 192.745 21.075 193.207 20.678C193.676 20.2741 193.911 19.7101 193.911 18.9858C193.911 18.5611 193.802 18.2024 193.585 17.9099C193.368 17.6175 192.99 17.3946 192.451 17.2414C191.919 17.0882 191.173 17.0116 190.214 17.0116H189.048V14.536H190.235C191.18 14.536 191.898 14.449 192.388 14.2749C192.885 14.0938 193.221 13.8501 193.396 13.5437C193.578 13.2303 193.669 12.8751 193.669 12.4782C193.669 11.935 193.501 11.5102 193.165 11.2038C192.829 10.8974 192.269 10.7442 191.485 10.7442C190.995 10.7442 190.547 10.8069 190.141 10.9322C189.742 11.0506 189.381 11.1969 189.059 11.371C188.737 11.5381 188.453 11.7017 188.208 11.8619L186.707 9.63699C187.309 9.20523 188.012 8.8466 188.817 8.56108C189.629 8.27557 190.596 8.13281 191.716 8.13281C193.298 8.13281 194.551 8.44966 195.475 9.08337C196.399 9.71707 196.862 10.6119 196.862 11.7679Z" fill="#FFFFF2"/>
<circle cx="280" cy="16" r="16" fill="#6CBA7C"/>
<path d="M286.005 20.6376H284.085V23.9067H280.792V20.6376H273.986V18.3179L280.977 8.13281H284.085V18.0482H286.005V20.6376ZM280.792 18.0482V15.3724C280.792 15.1207 280.795 14.8222 280.802 14.4769C280.817 14.1317 280.832 13.7864 280.846 13.4411C280.861 13.0959 280.875 12.7902 280.89 12.5241C280.912 12.2507 280.926 12.0601 280.933 11.9522H280.846C280.708 12.2471 280.563 12.5348 280.41 12.8154C280.257 13.0887 280.079 13.3764 279.875 13.6785L276.953 18.0482H280.792Z" fill="#FFFFF2"/>
</svg>
