<svg width="40" height="40" viewBox="0 0 40 40" fill="none" xmlns="http://www.w3.org/2000/svg">
<circle cx="20" cy="20" r="20" fill="#CEE8CB"/>
<path d="M26.7605 29.8352H13.2893V26.9833L18.1268 22.0622C19.1022 21.0541 19.8843 20.2141 20.473 19.542C21.0706 18.8611 21.5012 18.2421 21.7648 17.685C22.0372 17.1279 22.1734 16.531 22.1734 15.8943C22.1734 15.1249 21.9581 14.5502 21.5275 14.1699C21.1057 13.7808 20.5389 13.5863 19.8272 13.5863C19.0802 13.5863 18.3553 13.7587 17.6523 14.1036C16.9493 14.4485 16.2155 14.9392 15.451 15.5759L13.2366 12.9363C13.7902 12.4588 14.3745 12.0078 14.9897 11.5834C15.6136 11.1589 16.3341 10.8184 17.1514 10.562C17.9774 10.2967 18.966 10.1641 20.1171 10.1641C21.3825 10.1641 22.4678 10.394 23.3729 10.8538C24.2868 11.3136 24.9898 11.9415 25.4819 12.7374C25.974 13.5244 26.22 14.4175 26.22 15.4168C26.22 16.4868 26.0091 17.4639 25.5873 18.3482C25.1655 19.2325 24.5504 20.1079 23.742 20.9745C22.9423 21.8411 21.9757 22.8006 20.8421 23.8529L18.364 26.2007V26.3864H26.7605V29.8352Z" fill="#FFFFF2"/>
</svg>
