<svg width="700" height="40" viewBox="0 0 700 40" fill="none" xmlns="http://www.w3.org/2000/svg">
<line x1="12" y1="18.5" x2="680" y2="18.5" stroke="#CEE8CB" stroke-width="3"/>
<circle cx="20" cy="20" r="20" fill="#CEE8CB"/>
<path d="M22.1617 29.6591H18.0417V18.3792C18.0417 18.0681 18.0462 17.6859 18.055 17.2326C18.0639 16.7704 18.0773 16.2993 18.095 15.8193C18.1128 15.3304 18.1306 14.8904 18.1484 14.4993C18.0506 14.6148 17.8506 14.8148 17.5484 15.0993C17.2551 15.3748 16.9795 15.6237 16.7217 15.8459L14.4818 17.6459L12.4951 15.1659L18.775 10.166H22.1617V29.6591Z" fill="#FFFFF2"/>
<circle cx="240" cy="20" r="20" fill="#CEE8CB"/>
<path d="M246.76 29.8371H233.289V26.9853L238.127 22.0642C239.102 21.0561 239.884 20.216 240.473 19.5439C241.071 18.863 241.501 18.244 241.765 17.6869C242.037 17.1298 242.173 16.5329 242.173 15.8962C242.173 15.1269 241.958 14.5521 241.528 14.1719C241.106 13.7828 240.539 13.5882 239.827 13.5882C239.08 13.5882 238.355 13.7607 237.652 14.1055C236.949 14.4504 236.216 14.9412 235.451 15.5779L233.237 12.9383C233.79 12.4608 234.375 12.0098 234.99 11.5853C235.614 11.1608 236.334 10.8204 237.151 10.5639C237.977 10.2987 238.966 10.166 240.117 10.166C241.383 10.166 242.468 10.3959 243.373 10.8558C244.287 11.3156 244.99 11.9434 245.482 12.7393C245.974 13.5263 246.22 14.4195 246.22 15.4187C246.22 16.4887 246.009 17.4659 245.587 18.3501C245.166 19.2344 244.55 20.1099 243.742 20.9765C242.942 21.8431 241.976 22.8026 240.842 23.8549L238.364 26.2027V26.3884H246.76V29.8371Z" fill="#FFFFF2"/>
<circle cx="460" cy="20" r="20" fill="#CEE8CB"/>
<path d="M466.077 14.7099C466.077 15.5891 465.894 16.3507 465.526 16.9949C465.159 17.639 464.66 18.1656 464.03 18.5748C463.408 18.9839 462.708 19.2842 461.929 19.4757V19.554C463.47 19.7456 464.638 20.2156 465.434 20.9642C466.239 21.7128 466.642 22.7139 466.642 23.9673C466.642 25.0815 466.366 26.0782 465.815 26.9574C465.272 27.8366 464.432 28.5286 463.295 29.0335C462.157 29.5384 460.691 29.7908 458.897 29.7908C457.838 29.7908 456.849 29.7037 455.93 29.5296C455.02 29.3643 454.163 29.1075 453.357 28.7593V25.3253C454.18 25.7431 455.042 26.0608 455.943 26.2784C456.845 26.4874 457.685 26.5918 458.464 26.5918C459.917 26.5918 460.932 26.3437 461.509 25.8476C462.096 25.3427 462.389 24.6376 462.389 23.7323C462.389 23.2013 462.253 22.753 461.982 22.3874C461.711 22.0218 461.238 21.7433 460.564 21.5518C459.899 21.3603 458.967 21.2645 457.768 21.2645H456.311V18.17H457.794C458.976 18.17 459.873 18.0612 460.485 17.8436C461.107 17.6172 461.527 17.3126 461.746 16.9296C461.973 16.5379 462.087 16.0939 462.087 15.5978C462.087 14.9188 461.877 14.3878 461.457 14.0048C461.037 13.6218 460.337 13.4303 459.356 13.4303C458.744 13.4303 458.184 13.5086 457.676 13.6653C457.177 13.8133 456.727 13.9961 456.324 14.2137C455.922 14.4226 455.567 14.6272 455.261 14.8274L453.384 12.0462C454.136 11.5065 455.016 11.0582 456.022 10.7014C457.037 10.3445 458.245 10.166 459.645 10.166C461.623 10.166 463.19 10.5621 464.345 11.3542C465.5 12.1463 466.077 13.2649 466.077 14.7099Z" fill="#FFFFF2"/>
<circle cx="680" cy="20" r="20" fill="#6CBA7C"/>
<path d="M687.506 25.797H685.107V29.8834H680.99V25.797H672.483V22.8974L681.222 10.166H685.107V22.5602H687.506V25.797ZM680.99 22.5602V19.2155C680.99 18.9008 680.994 18.5277 681.004 18.0961C681.022 17.6646 681.04 17.233 681.058 16.8014C681.076 16.3699 681.094 15.9877 681.113 15.6551C681.14 15.3134 681.158 15.0751 681.167 14.9403H681.058C680.885 15.3089 680.704 15.6686 680.513 16.0192C680.322 16.3609 680.099 16.7205 679.845 17.0981L676.191 22.5602H680.99Z" fill="#FFFFF2"/>
</svg>
