<svg width="40" height="40" viewBox="0 0 40 40" fill="none" xmlns="http://www.w3.org/2000/svg">
<circle cx="20" cy="20" r="20" fill="#CEE8CB"/>
<path d="M26.0774 14.7079C26.0774 15.5871 25.8937 16.3488 25.5261 16.9929C25.1585 17.6371 24.6597 18.1637 24.0296 18.5728C23.4083 18.9819 22.7082 19.2822 21.9293 19.4738V19.5521C23.4695 19.7436 24.6378 20.2137 25.4342 20.9623C26.2393 21.7109 26.6419 22.7119 26.6419 23.9654C26.6419 25.0796 26.3662 26.0763 25.8149 26.9555C25.2723 27.8346 24.4322 28.5267 23.2945 29.0315C22.1569 29.5364 20.691 29.7888 18.897 29.7888C17.8381 29.7888 16.8492 29.7018 15.9303 29.5277C15.0202 29.3623 14.1625 29.1055 13.3574 28.7573V25.3233C14.18 25.7411 15.042 26.0589 15.9434 26.2765C16.8448 26.4854 17.6849 26.5899 18.4638 26.5899C19.9165 26.5899 20.9317 26.3418 21.5093 25.8456C22.0956 25.3407 22.3888 24.6356 22.3888 23.7304C22.3888 23.1994 22.2531 22.7511 21.9818 22.3855C21.7105 22.0199 21.238 21.7413 20.5641 21.5498C19.899 21.3583 18.967 21.2626 17.7681 21.2626H16.311V18.168H17.7943C18.9758 18.168 19.8728 18.0592 20.4854 17.8416C21.1067 17.6153 21.5268 17.3106 21.7455 16.9276C21.9731 16.5359 22.0868 16.092 22.0868 15.5958C22.0868 14.9168 21.8768 14.3858 21.4567 14.0028C21.0367 13.6198 20.3366 13.4283 19.3564 13.4283C18.7438 13.4283 18.1838 13.5067 17.6762 13.6634C17.1774 13.8113 16.7267 13.9941 16.3241 14.2118C15.9216 14.4207 15.5671 14.6252 15.2608 14.8254L13.3837 12.0443C14.1363 11.5046 15.0158 11.0563 16.0222 10.6994C17.0373 10.3425 18.245 10.1641 19.6452 10.1641C21.623 10.1641 23.1895 10.5601 24.3447 11.3523C25.4998 12.1444 26.0774 13.2629 26.0774 14.7079Z" fill="#FFFFF2"/>
</svg>
