<svg width="572" height="20" viewBox="0 0 572 20" fill="none" xmlns="http://www.w3.org/2000/svg">
<path d="M1 19L14.1933 15.1083H25.4632L35.6741 19L51.6767 15.1083L74.2416 11.2166H83.713L90.9196 15.1083L106.128 11.2166L122.808 3.27673L132.278 1L149.968 7.81107L164.579 12.6763L179.192 15.1083L194.439 10.0006L207.16 7.81107L228.479 12.1889L286 19L299.193 15.1083H310.463L320.674 19L336.677 15.1083L359.242 11.2166H368.713L375.92 15.1083L391.128 11.2166L407.808 3.27673L417.278 1L434.968 7.81107L449.579 12.6763L464.192 15.1083L479.439 10.0006L492.16 7.81107L513.479 12.1889L571 19" stroke="#6CBA7C" stroke-miterlimit="10"/>
</svg>
