<svg width="106" height="16" viewBox="0 0 106 16" fill="none" xmlns="http://www.w3.org/2000/svg">
<path d="M9.23991 0.171021L12.0577 4.97516L17.5294 6.15181L13.7991 10.2976L14.3631 15.8289L9.23991 13.587L4.11674 15.8289L4.6807 10.2976L0.950439 6.15181L6.42217 4.97516L9.23991 0.171021Z" fill="#FFCB45"/>
<path d="M31.3451 0.171021L34.1629 4.97516L39.6346 6.15181L35.9043 10.2976L36.4683 15.8289L31.3451 13.587L26.222 15.8289L26.7859 10.2976L23.0557 6.15181L28.5274 4.97516L31.3451 0.171021Z" fill="#FFCB45"/>
<path d="M53.4504 0.171021L56.2681 4.97516L61.7398 6.15181L58.0096 10.2976L58.5735 15.8289L53.4504 13.587L48.3272 15.8289L48.8912 10.2976L45.1609 6.15181L50.6326 4.97516L53.4504 0.171021Z" fill="#FFCB45"/>
<path d="M75.5556 0.171021L78.3733 4.97516L83.8451 6.15181L80.1148 10.2976L80.6788 15.8289L75.5556 13.587L70.4324 15.8289L70.9964 10.2976L67.2661 6.15181L72.7378 4.97516L75.5556 0.171021Z" fill="#FFCB45"/>
<path d="M97.6611 0.171021L100.479 4.97516L105.951 6.15181L102.22 10.2976L102.784 15.8289L97.6611 13.587L92.5379 15.8289L93.1018 10.2976L89.3716 6.15181L94.8433 4.97516L97.6611 0.171021Z" fill="#F2F2F2"/>
<path d="M92.5379 15.8289L97.6611 13.587V0.171021L94.8433 4.97516L89.3716 6.1518L93.1018 10.2976L92.5379 15.8289Z" fill="#FFCB45"/>
</svg>
