<svg width="38" height="32" viewBox="0 0 38 32" fill="none" xmlns="http://www.w3.org/2000/svg">
<g clip-path="url(#clip0_1530_15192)">
<path d="M27 30V26.6667C27 24.8986 26.3415 23.2029 25.1694 21.9526C23.9973 20.7024 22.4076 20 20.75 20H8.25C6.5924 20 5.00269 20.7024 3.83058 21.9526C2.65848 23.2029 2 24.8986 2 26.6667V30" stroke="#6CBA7C" stroke-width="3" stroke-linecap="round" stroke-linejoin="round"/>
<path d="M14.5 15C18.0899 15 21 12.0899 21 8.5C21 4.91015 18.0899 2 14.5 2C10.9101 2 8 4.91015 8 8.5C8 12.0899 10.9101 15 14.5 15Z" stroke="#6CBA7C" stroke-width="3" stroke-linecap="round" stroke-linejoin="round"/>
<path d="M36 30V26.9336C35.9991 25.5747 35.6058 24.2547 34.8818 23.1807C34.1578 22.1068 33.1442 21.3397 32 21" stroke="#6CBA7C" stroke-width="3" stroke-linecap="round" stroke-linejoin="round"/>
<path d="M25 2C26.4303 2.34111 27.698 3.11592 28.6033 4.20229C29.5086 5.28865 30 6.62477 30 8C30 9.37523 29.5086 10.7113 28.6033 11.7977C27.698 12.8841 26.4303 13.6589 25 14" stroke="#6CBA7C" stroke-width="3" stroke-linecap="round" stroke-linejoin="round"/>
</g>
<defs>
<clipPath id="clip0_1530_15192">
<rect width="38" height="32" fill="white"/>
</clipPath>
</defs>
</svg>
