<svg width="177" height="110" viewBox="0 0 177 110" fill="none" xmlns="http://www.w3.org/2000/svg">
<rect width="177" height="110" rx="8" fill="#CEE8CB" fill-opacity="0.7"/>
<path d="M109.247 41.2338C107.769 40.6474 105.424 40 102.526 40C95.1261 40 89.9153 43.9459 89.8833 49.5874C89.8218 53.7497 93.6141 56.0615 96.4504 57.4493C99.3494 58.8675 100.335 59.7931 100.335 61.0572C100.305 62.9986 97.9923 63.8935 95.835 63.8935C92.8434 63.8935 91.2404 63.4321 88.8044 62.352L87.8177 61.889L86.7692 68.3942C88.5266 69.1949 91.7645 69.9054 95.1261 69.9365C102.988 69.9365 108.107 66.0517 108.168 60.0398C108.198 56.7409 106.195 54.2131 101.878 52.1475C99.2572 50.8216 97.6522 49.9275 97.6522 48.5708C97.683 47.3374 99.0097 46.0742 101.968 46.0742C104.404 46.0123 106.194 46.5978 107.55 47.1838L108.228 47.4915L109.247 41.2338Z" fill="#3362AB"/>
<path d="M82.0833 69.5047H74.5901L79.2769 40.5253H86.7696L82.0833 69.5047Z" fill="#3362AB"/>
<path fill-rule="evenodd" clip-rule="evenodd" d="M128.455 40.5253H122.659C120.872 40.5253 119.514 41.049 118.743 42.9297L107.612 69.5042H115.475C115.475 69.5042 116.769 65.9275 117.047 65.1572H126.668C126.883 66.1746 127.562 69.5042 127.562 69.5042H134.5L128.455 40.5253ZM119.206 59.2383C119.823 57.5735 122.197 51.1301 122.197 51.1301C122.185 51.1549 122.281 50.8872 122.425 50.488L122.427 50.4831L122.428 50.4799C122.643 49.8837 122.963 48.9986 123.183 48.3557L123.707 50.8527C123.707 50.8527 125.126 57.7894 125.434 59.2383H119.206Z" fill="#3362AB"/>
<path d="M68.3315 40.5253L60.9933 60.2865L60.1914 56.2787L60.1906 56.2762L57.5706 42.9613C57.1391 41.1104 55.8132 40.5864 54.1791 40.5253H42.1233L42 41.1108C44.9404 41.8627 47.5702 42.9462 49.8745 44.2934L56.5532 69.4739H64.477L76.2549 40.5253H68.3315Z" fill="#3362AB"/>
</svg>
