<svg width="183" height="116" viewBox="0 0 183 116" fill="none" xmlns="http://www.w3.org/2000/svg">
<rect x="1.5" y="1.5" width="180" height="113" rx="9.5" fill="#CEE8CB" fill-opacity="0.7"/>
<path d="M113.247 44.2338C111.769 43.6474 109.424 43 106.526 43C99.1261 43 93.9153 46.9459 93.8833 52.5874C93.8218 56.7497 97.6141 59.0615 100.45 60.4493C103.349 61.8675 104.335 62.7931 104.335 64.0572C104.305 65.9986 101.992 66.8935 99.835 66.8935C96.8434 66.8935 95.2404 66.4321 92.8044 65.352L91.8177 64.889L90.7692 71.3942C92.5266 72.1949 95.7645 72.9054 99.1261 72.9365C106.988 72.9365 112.107 69.0517 112.168 63.0398C112.198 59.7409 110.195 57.2131 105.878 55.1475C103.257 53.8216 101.652 52.9275 101.652 51.5708C101.683 50.3374 103.01 49.0742 105.968 49.0742C108.404 49.0123 110.194 49.5978 111.55 50.1838L112.228 50.4915L113.247 44.2338Z" fill="#3362AB"/>
<path d="M86.0833 72.5047H78.5901L83.2769 43.5253H90.7696L86.0833 72.5047Z" fill="#3362AB"/>
<path fill-rule="evenodd" clip-rule="evenodd" d="M132.455 43.5253H126.659C124.872 43.5253 123.514 44.049 122.743 45.9297L111.612 72.5042H119.475C119.475 72.5042 120.769 68.9275 121.047 68.1572H130.668C130.883 69.1746 131.562 72.5042 131.562 72.5042H138.5L132.455 43.5253ZM123.206 62.2383C123.823 60.5735 126.197 54.1301 126.197 54.1301C126.185 54.1549 126.281 53.8872 126.425 53.488L126.427 53.4831L126.428 53.4799C126.643 52.8837 126.963 51.9986 127.183 51.3557L127.707 53.8527C127.707 53.8527 129.126 60.7894 129.434 62.2383H123.206Z" fill="#3362AB"/>
<path d="M72.3315 43.5253L64.9933 63.2865L64.1914 59.2787L64.1906 59.2762L61.5706 45.9613C61.1391 44.1104 59.8132 43.5864 58.1791 43.5253H46.1233L46 44.1108C48.9404 44.8627 51.5702 45.9462 53.8745 47.2934L60.5532 72.4739H68.477L80.2549 43.5253H72.3315Z" fill="#3362AB"/>
<rect x="1.5" y="1.5" width="180" height="113" rx="9.5" stroke="#ADD9B1" stroke-width="3"/>
</svg>
