<svg width="668" height="20" viewBox="0 0 668 20" fill="none" xmlns="http://www.w3.org/2000/svg">
<path d="M1 18.5L16.4269 14.8245H29.6048L41.5443 18.5L60.2561 14.8245L86.6412 11.149H97.7162L106.143 14.8245L123.926 11.149L143.43 3.65024L154.503 1.5L175.188 7.93268L192.273 12.5276L209.359 14.8245L227.188 10.0006L242.063 7.93268L266.99 12.0673L334.25 18.5L349.677 14.8245H362.855L374.794 18.5L393.506 14.8245L419.891 11.149H430.966L439.393 14.8245L457.176 11.149L476.68 3.65024L487.753 1.5L508.438 7.93268L525.523 12.5276L542.609 14.8245L560.438 10.0006L575.313 7.93268L600.24 12.0673L667.5 18.5" stroke="#6CBA7C" stroke-miterlimit="10" stroke-dasharray="4 4"/>
</svg>
