<svg width="668" height="20" viewBox="0 0 668 20" fill="none" xmlns="http://www.w3.org/2000/svg">
<path d="M0.5 18.5L15.9269 14.8245H29.1048L41.0443 18.5L59.7561 14.8245L86.1412 11.149H97.2162L105.643 14.8245L123.426 11.149L142.93 3.65024L154.003 1.5L174.688 7.93268L191.773 12.5276L208.859 14.8245L226.688 10.0006L241.563 7.93268L266.49 12.0673L333.75 18.5L349.177 14.8245H362.355L374.294 18.5L393.006 14.8245L419.391 11.149H430.466L438.893 14.8245L456.676 11.149L476.18 3.65024L487.253 1.5L507.938 7.93268L525.023 12.5276L542.109 14.8245L559.938 10.0006L574.813 7.93268L599.74 12.0673L667 18.5" stroke="#6CBA7C" stroke-miterlimit="10" stroke-dasharray="4 4"/>
</svg>
