<svg width="109" height="25" viewBox="0 0 109 25" fill="none" xmlns="http://www.w3.org/2000/svg">
<g clip-path="url(#clip0_870_13270)">
<path d="M73.6736 3.99115C73.6736 3.99115 69.3904 9.64591 68.1889 11.1438C66.9924 12.6416 65.62 12.9734 62.8802 13.6369C60.1403 14.3054 59.1148 17.2913 56.8827 20.37C54.6557 23.4437 52.7704 23.8877 52.7704 23.8877H0.125488C0.125488 23.8877 6.63573 23.7804 8.34498 22.1166C10.0542 20.4529 12.4572 19.9552 13.3169 20.37C14.1765 20.7847 17.4291 18.6233 19.3144 19.4576C21.2046 20.287 27.0311 19.9065 28.5695 19.2624C30.1128 18.6233 33.1995 17.2913 38.1664 16.9644C43.1383 16.6278 44.1639 13.471 44.5057 12.4709C44.8526 11.4755 46.7328 6.81609 50.1613 6.65021C53.5899 6.48432 54.7914 3.48861 55.4701 2.4933C56.1588 1.49798 61.1257 -0.165757 64.9011 1.3321C68.6665 2.82995 69.3502 2.16153 70.1244 1.82975C70.8935 1.49798 71.6124 2.00052 73.6736 3.99115Z" stroke="#99CC99" stroke-width="1.50816" stroke-miterlimit="10"/>
<path d="M108.457 24.4878C108.457 24.4878 106.914 22.946 104.174 21.9507C101.434 20.9554 100.745 17.462 96.834 17.0717C92.9228 16.6863 92.6966 13.632 90.2936 13.9248C87.8956 14.2224 87.7247 12.1342 86.865 11.4706C86.0054 10.8071 82.064 10.285 82.064 10.285C82.064 10.285 77.2631 8.30903 75.7197 5.98174C74.1814 3.65934 73.6636 3.98623 73.6636 3.98623" stroke="#99CC99" stroke-width="1.50816" stroke-miterlimit="10"/>
<path d="M52.7705 23.8875C52.7705 23.8875 54.6557 23.4484 56.8828 20.3697C59.1098 17.296 60.1404 14.3003 62.8802 13.6367C65.6201 12.9732 66.9925 12.6365 68.194 11.1436C69.3955 9.65058 73.6787 3.99094 73.6787 3.99094C73.6787 3.99094 74.1915 3.65917 75.7348 5.98645C77.2782 8.31373 82.0741 10.2897 82.0741 10.2897C82.0741 10.2897 86.0155 10.8118 86.8701 11.4753C87.7247 12.1389 87.9007 14.2271 90.2986 13.9295C92.6966 13.6318 92.9279 16.691 96.839 17.0764C100.75 17.4619 101.439 20.9552 104.179 21.9505C106.919 22.9507 108.462 24.4876 108.462 24.4876" stroke="#99CC99" stroke-width="0.502721" stroke-miterlimit="10"/>
<path d="M56.1084 23.9999C56.6765 23.7071 58.1494 23.2046 59.9492 21.5701C62.0305 19.6819 63.7196 18.1646 66.1628 17.7011C68.1687 17.3254 69.4456 17.0278 70.7074 16.2764C72.2256 15.3738 75.3676 12.5391 76.3278 12.4708C76.6446 12.4464 77.102 12.3732 78.2985 13.4027C79.7665 14.6614 83.1045 15.447 83.924 15.4031C84.3261 15.3835 86.709 15.6177 87.5436 15.9593C88.3781 16.3008 88.8154 17.34 90.3839 17.2668C92.1987 17.1839 92.9026 18.9159 95.3709 19.4575C97.8393 19.9991 99.0257 21.9312 101.157 22.6093C102.962 23.1899 104.148 24.0633 104.51 24.1804" stroke="#99CC99" stroke-width="0.502721" stroke-miterlimit="10"/>
<path d="M59.4468 24.1168C62.4882 22.5312 66.0123 22.1164 69.4459 21.7749C74.8853 21.2333 80.3348 20.8186 85.7944 20.5259C88.5895 20.3746 91.6159 20.3161 93.9234 21.853C95.6628 23.0093 98.5786 23.2386 100.579 23.8875" stroke="#99CC99" stroke-width="0.502721" stroke-miterlimit="10"/>
</g>
<defs>
<clipPath id="clip0_870_13270">
<rect width="109" height="25" fill="white"/>
</clipPath>
</defs>
</svg>
